<?xml version="1.0" encoding="UTF-8" standalone="no"?>
<svg
   version="1.1"
   viewBox="0 0 837.76202 647.34875"
   fill="none"
   stroke="none"
   stroke-linecap="square"
   stroke-miterlimit="10"
   id="svg113"
   sodipodi:docname="pgo-overview-flow.svg"
   width="837.76202"
   height="647.34875"
   inkscape:version="1.2.1 (9c6d41e410, 2022-07-14)"
   xmlns:inkscape="http://www.inkscape.org/namespaces/inkscape"
   xmlns:sodipodi="http://sodipodi.sourceforge.net/DTD/sodipodi-0.dtd"
   xmlns="http://www.w3.org/2000/svg"
   xmlns:svg="http://www.w3.org/2000/svg">
  <defs
     id="defs117" />
  <sodipodi:namedview
     id="namedview115"
     pagecolor="#ffffff"
     bordercolor="#666666"
     borderopacity="1.0"
     inkscape:showpageshadow="2"
     inkscape:pageopacity="0.0"
     inkscape:pagecheckerboard="0"
     inkscape:deskcolor="#d1d1d1"
     showgrid="false"
     inkscape:zoom="0.9453125"
     inkscape:cx="330.57851"
     inkscape:cy="269.75207"
     inkscape:window-width="2560"
     inkscape:window-height="1377"
     inkscape:window-x="-8"
     inkscape:window-y="-8"
     inkscape:window-maximized="1"
     inkscape:current-layer="svg113" />
  <clipPath
     id="p.0">
    <path
       d="M 0,0 H 1280 V 960 H 0 Z"
       clip-rule="nonzero"
       id="path2" />
  </clipPath>
  <g
     id="g438"
     transform="translate(1.104024,0.09049644)">
    <g
       clip-path="url(#p.0)"
       id="g111"
       transform="translate(-70.375252,-97.879379)">
      <path
         fill="#cfe2f3"
         d="M 84.49606,113 H 269.78741 V 305.40945 H 84.49606 Z"
         fill-rule="evenodd"
         id="path7" />
      <path
         stroke="#000000"
         stroke-width="1"
         stroke-linejoin="round"
         stroke-linecap="butt"
         d="M 84.49606,113 H 269.78741 V 305.40945 H 84.49606 Z"
         fill-rule="evenodd"
         id="path9" />
      <path
         fill="#000000"
         d="m 143.93282,182.2966 h -4.26563 v 11.82812 h -1.73437 V 182.2966 h -4.25 v -1.4375 h 10.25 z m 5.79196,3.48437 q -0.39062,-0.0625 -0.84375,-0.0625 -1.65625,0 -2.25,1.40625 v 7 h -1.67187 v -9.85937 h 1.64062 l 0.0156,1.14062 q 0.82812,-1.3125 2.35937,-1.3125 0.48438,0 0.75,0.125 z m 7.2608,8.34375 q -0.14062,-0.29687 -0.23437,-1.03125 -1.17188,1.21875 -2.8125,1.21875 -1.45313,0 -2.39063,-0.82812 -0.92187,-0.82813 -0.92187,-2.09375 0,-1.53125 1.15625,-2.375 1.17187,-0.85938 3.29687,-0.85938 h 1.64063 v -0.78125 q 0,-0.89062 -0.53125,-1.40625 -0.51563,-0.53125 -1.54688,-0.53125 -0.90625,0 -1.51562,0.46875 -0.60938,0.45313 -0.60938,1.09375 h -1.70312 q 0,-0.73437 0.51562,-1.42187 0.53125,-0.6875 1.42188,-1.07813 0.90625,-0.40625 1.98437,-0.40625 1.70313,0 2.67188,0.85938 0.96875,0.84375 1,2.32812 v 4.53125 q 0,1.35938 0.34375,2.17188 v 0.14062 z m -2.79687,-1.28125 q 0.79687,0 1.5,-0.40625 0.71875,-0.42187 1.03125,-1.07812 v -2.01563 h -1.3125 q -3.10938,0 -3.10938,1.8125 0,0.79688 0.53125,1.25 0.53125,0.4375 1.35938,0.4375 z m 6.44485,-3.73437 q 0,-2.26563 1.07813,-3.64063 1.07812,-1.375 2.8125,-1.375 1.73437,0 2.75,1.17188 v -5.14063 h 1.6875 v 14 h -1.54688 l -0.0937,-1.0625 q -1,1.25 -2.8125,1.25 -1.70312,0 -2.79687,-1.40625 -1.07813,-1.40625 -1.07813,-3.65625 z m 1.6875,0.20312 q 0,1.67188 0.6875,2.625 0.70313,0.9375 1.92188,0.9375 1.60937,0 2.34375,-1.4375 v -4.53125 q -0.76563,-1.39062 -2.32813,-1.39062 -1.23437,0 -1.9375,0.95312 -0.6875,0.95313 -0.6875,2.84375 z m 11.08397,4.8125 h -1.6875 v -9.85937 h 1.6875 z m -1.82812,-12.46875 q 0,-0.40625 0.25,-0.6875 0.25,-0.29687 0.73437,-0.29687 0.5,0 0.75,0.29687 0.26563,0.28125 0.26563,0.6875 0,0.40625 -0.26563,0.6875 -0.25,0.26563 -0.75,0.26563 -0.48437,0 -0.73437,-0.26563 -0.25,-0.28125 -0.25,-0.6875 z m 6.80867,0.21875 v 2.39063 h 1.84375 v 1.3125 h -1.84375 v 6.10937 q 0,0.59375 0.23437,0.89063 0.25,0.29687 0.84375,0.29687 0.29688,0 0.8125,-0.10937 v 1.35937 q -0.67187,0.1875 -1.29687,0.1875 -1.125,0 -1.70313,-0.6875 -0.57812,-0.6875 -0.57812,-1.9375 v -6.10937 h -1.79688 v -1.3125 h 1.79688 v -2.39063 z m 5.64113,12.25 h -1.6875 v -9.85937 h 1.6875 z m -1.82813,-12.46875 q 0,-0.40625 0.25,-0.6875 0.25,-0.29687 0.73438,-0.29687 0.5,0 0.75,0.29687 0.26562,0.28125 0.26562,0.6875 0,0.40625 -0.26562,0.6875 -0.25,0.26563 -0.75,0.26563 -0.48438,0 -0.73438,-0.26563 -0.25,-0.28125 -0.25,-0.6875 z m 4.0743,7.45313 q 0,-1.45313 0.5625,-2.60938 0.57812,-1.15625 1.59375,-1.78125 1.01562,-0.625 2.3125,-0.625 2.01562,0 3.25,1.39063 1.25,1.39062 1.25,3.70312 v 0.125 q 0,1.4375 -0.54688,2.57813 -0.54687,1.14062 -1.57812,1.78125 -1.01563,0.64062 -2.35938,0.64062 -2,0 -3.25,-1.39062 -1.23437,-1.40625 -1.23437,-3.70313 z m 1.6875,0.20312 q 0,1.64063 0.76562,2.64063 0.76563,0.98437 2.03125,0.98437 1.29688,0 2.04688,-1 0.75,-1.01562 0.75,-2.82812 0,-1.625 -0.76563,-2.625 -0.76562,-1.01563 -2.04687,-1.01563 -1.25,0 -2.01563,1 -0.76562,0.98438 -0.76562,2.84375 z m 10.99926,-5.04687 0.0469,1.23437 q 1.125,-1.40625 2.95312,-1.40625 3.125,0 3.15625,3.51563 v 6.51562 h -1.6875 v -6.51562 q -0.0156,-1.07813 -0.5,-1.57813 -0.46875,-0.51562 -1.48437,-0.51562 -0.8125,0 -1.4375,0.4375 -0.60938,0.4375 -0.96875,1.15625 v 7.01562 h -1.67188 v -9.85937 z m 14.77811,9.85937 q -0.14062,-0.29687 -0.23437,-1.03125 -1.17188,1.21875 -2.8125,1.21875 -1.45313,0 -2.39063,-0.82812 -0.92187,-0.82813 -0.92187,-2.09375 0,-1.53125 1.15625,-2.375 1.17187,-0.85938 3.29687,-0.85938 h 1.64063 v -0.78125 q 0,-0.89062 -0.53125,-1.40625 -0.51563,-0.53125 -1.54688,-0.53125 -0.90625,0 -1.51562,0.46875 -0.60938,0.45313 -0.60938,1.09375 h -1.70312 q 0,-0.73437 0.51562,-1.42187 0.53125,-0.6875 1.42188,-1.07813 0.90625,-0.40625 1.98437,-0.40625 1.70313,0 2.67188,0.85938 0.96875,0.84375 1,2.32812 v 4.53125 q 0,1.35938 0.34375,2.17188 v 0.14062 z m -2.79687,-1.28125 q 0.79687,0 1.5,-0.40625 0.71875,-0.42187 1.03125,-1.07812 v -2.01563 h -1.3125 q -3.10938,0 -3.10938,1.8125 0,0.79688 0.53125,1.25 0.53125,0.4375 1.35938,0.4375 z m 8.69485,1.28125 h -1.6875 v -14 h 1.6875 z"
         fill-rule="nonzero"
         id="path11" />
      <path
         fill="#000000"
         d="m 146.7265,209.9216 q 0,1.95312 -0.65625,3.40625 -0.64063,1.45312 -1.84375,2.21875 -1.20313,0.76562 -2.8125,0.76562 -1.5625,0 -2.78125,-0.76562 -1.20313,-0.78125 -1.875,-2.20313 -0.67188,-1.42187 -0.6875,-3.29687 v -0.96875 q 0,-1.90625 0.65625,-3.375 0.67187,-1.46875 1.89062,-2.25 1.21875,-0.78125 2.78125,-0.78125 1.59375,0 2.8125,0.78125 1.21875,0.76562 1.85938,2.23437 0.65625,1.45313 0.65625,3.39063 z m -1.73438,-0.85938 q 0,-2.35937 -0.95312,-3.60937 -0.9375,-1.26563 -2.64063,-1.26563 -1.65625,0 -2.60937,1.26563 -0.95313,1.25 -0.98438,3.5 v 0.96875 q 0,2.28125 0.95313,3.59375 0.96875,1.3125 2.65625,1.3125 1.6875,0 2.60937,-1.23438 0.9375,-1.23437 0.96875,-3.54687 z m 12.41993,2.25 q 0,2.25 -1.03125,3.625 -1.01563,1.375 -2.78125,1.375 -1.79688,0 -2.82813,-1.14062 v 4.75 h -1.67187 v -13.65625 h 1.53125 l 0.0781,1.09375 q 1.03125,-1.26563 2.85938,-1.26563 1.78125,0 2.8125,1.34375 1.03125,1.32813 1.03125,3.71875 z m -1.67188,-0.20312 q 0,-1.65625 -0.71875,-2.625 -0.70312,-0.96875 -1.95312,-0.96875 -1.53125,0 -2.29688,1.35937 v 4.70313 q 0.76563,1.35937 2.32813,1.35937 1.20312,0 1.92187,-0.95312 0.71875,-0.96875 0.71875,-2.875 z m 6.10744,-7.23438 v 2.39063 h 1.84375 v 1.3125 h -1.84375 v 6.10937 q 0,0.59375 0.23437,0.89063 0.25,0.29687 0.84375,0.29687 0.29688,0 0.8125,-0.10937 v 1.35937 q -0.67187,0.1875 -1.29687,0.1875 -1.125,0 -1.70313,-0.6875 -0.57812,-0.6875 -0.57812,-1.9375 v -6.10937 h -1.79688 v -1.3125 h 1.79688 v -2.39063 z m 5.64113,12.25 h -1.6875 v -9.85937 h 1.6875 z m -1.82813,-12.46875 q 0,-0.40625 0.25,-0.6875 0.25,-0.29687 0.73438,-0.29687 0.5,0 0.75,0.29687 0.26562,0.28125 0.26562,0.6875 0,0.40625 -0.26562,0.6875 -0.25,0.26563 -0.75,0.26563 -0.48438,0 -0.73438,-0.26563 -0.25,-0.28125 -0.25,-0.6875 z m 6.10555,2.60938 0.0469,1.09375 q 1.07813,-1.26563 2.92188,-1.26563 2.0625,0 2.8125,1.57813 0.5,-0.71875 1.28125,-1.14063 0.79687,-0.4375 1.85937,-0.4375 3.25,0 3.29688,3.42188 v 6.60937 h -1.67188 v -6.5 q 0,-1.0625 -0.48437,-1.57812 -0.48438,-0.53125 -1.625,-0.53125 -0.9375,0 -1.5625,0.5625 -0.60938,0.5625 -0.71875,1.5 v 6.54687 h -1.6875 v -6.45312 q 0,-2.15625 -2.10938,-2.15625 -1.65625,0 -2.26562,1.40625 v 7.20312 h -1.6875 v -9.85937 z m 16.60154,9.85937 h -1.6875 v -9.85937 h 1.6875 z m -1.82812,-12.46875 q 0,-0.40625 0.25,-0.6875 0.25,-0.29687 0.73437,-0.29687 0.5,0 0.75,0.29687 0.26563,0.28125 0.26563,0.6875 0,0.40625 -0.26563,0.6875 -0.25,0.26563 -0.75,0.26563 -0.48437,0 -0.73437,-0.26563 -0.25,-0.28125 -0.25,-0.6875 z m 6.10554,11.09375 h 5.76563 v 1.375 h -7.82813 v -1.23437 l 5.4375,-7.23438 h -5.34375 v -1.39062 h 7.46875 v 1.20312 z m 11.60032,1.5625 q -2,0 -3.26563,-1.3125 -1.25,-1.32812 -1.25,-3.53125 v -0.3125 q 0,-1.46875 0.5625,-2.60937 0.5625,-1.15625 1.5625,-1.79688 1.01563,-0.65625 2.1875,-0.65625 1.92188,0 2.98438,1.26563 1.0625,1.26562 1.0625,3.625 v 0.6875 h -6.67188 q 0.0312,1.46875 0.84375,2.375 0.82813,0.89062 2.07813,0.89062 0.89062,0 1.51562,-0.35937 0.625,-0.375 1.07813,-0.96875 l 1.03125,0.79687 q -1.23438,1.90625 -3.71875,1.90625 z m -0.20313,-8.84375 q -1.01562,0 -1.71875,0.75 -0.6875,0.73438 -0.84375,2.07813 h 4.9375 v -0.125 q -0.0781,-1.28125 -0.70312,-1.98438 -0.60938,-0.71875 -1.67188,-0.71875 z m 5.58693,3.64063 q 0,-2.26563 1.07812,-3.64063 1.07813,-1.375 2.8125,-1.375 1.73438,0 2.75,1.17188 v -5.14063 h 1.6875 v 14 h -1.54687 l -0.0937,-1.0625 q -1,1.25 -2.8125,1.25 -1.70313,0 -2.79688,-1.40625 -1.07812,-1.40625 -1.07812,-3.65625 z m 1.6875,0.20312 q 0,1.67188 0.6875,2.625 0.70312,0.9375 1.92187,0.9375 1.60938,0 2.34375,-1.4375 v -4.53125 q -0.76562,-1.39062 -2.32812,-1.39062 -1.23438,0 -1.9375,0.95312 -0.6875,0.95313 -0.6875,2.84375 z"
         fill-rule="nonzero"
         id="path13" />
      <path
         fill="#000000"
         d="M 157.95084,238.12473 V 224.8591 h 4.32812 q 2.15625,0 3.25,0.89063 1.09375,0.89062 1.09375,2.64062 0,0.9375 -0.53125,1.65625 -0.53125,0.70313 -1.4375,1.09375 1.0625,0.3125 1.6875,1.15625 0.625,0.84375 0.625,2 0,1.78125 -1.15625,2.8125 -1.15625,1.01563 -3.26562,1.01563 z m 1.73437,-6.20313 v 4.76563 h 2.89063 q 1.21875,0 1.92187,-0.625 0.71875,-0.64063 0.71875,-1.75 0,-2.39063 -2.60937,-2.39063 z m 0,-1.40625 h 2.65625 q 1.14063,0 1.82813,-0.5625 0.6875,-0.57812 0.6875,-1.5625 0,-1.09375 -0.64063,-1.59375 -0.64062,-0.5 -1.9375,-0.5 h -2.59375 z m 15.69274,6.64063 q -0.98438,1.15625 -2.89063,1.15625 -1.57812,0 -2.40625,-0.92188 -0.8125,-0.92187 -0.82812,-2.70312 v -6.42188 h 1.6875 v 6.375 q 0,2.23438 1.82812,2.23438 1.92188,0 2.5625,-1.4375 v -7.17188 h 1.6875 v 9.85938 h -1.60937 z m 6.03462,0.96875 h -1.6875 v -9.85938 h 1.6875 z m -1.82812,-12.46875 q 0,-0.40625 0.25,-0.6875 0.25,-0.29688 0.73437,-0.29688 0.5,0 0.75,0.29688 0.26563,0.28125 0.26563,0.6875 0,0.40625 -0.26563,0.6875 -0.25,0.26562 -0.75,0.26562 -0.48437,0 -0.73437,-0.26562 -0.25,-0.28125 -0.25,-0.6875 z m 6.35554,12.46875 h -1.6875 v -14 h 1.6875 z m 2.27742,-5.01563 q 0,-2.26562 1.07813,-3.64062 1.07812,-1.375 2.8125,-1.375 1.73437,0 2.75,1.17187 v -5.14062 h 1.6875 v 14 h -1.54688 l -0.0937,-1.0625 q -1,1.25 -2.8125,1.25 -1.70312,0 -2.79687,-1.40625 -1.07813,-1.40625 -1.07813,-3.65625 z m 1.6875,0.20313 q 0,1.67187 0.6875,2.625 0.70313,0.9375 1.92188,0.9375 1.60937,0 2.34375,-1.4375 v -4.53125 q -0.76563,-1.39063 -2.32813,-1.39063 -1.23437,0 -1.9375,0.95313 -0.6875,0.95312 -0.6875,2.84375 z"
         fill-rule="nonzero"
         id="path15" />
      <path
         fill="#cfe2f3"
         d="M 444.3701,113 H 629.66145 V 305.40945 H 444.3701 Z"
         fill-rule="evenodd"
         id="path17" />
      <path
         stroke="#000000"
         stroke-width="1"
         stroke-linejoin="round"
         stroke-linecap="butt"
         d="M 444.3701,113 H 629.66145 V 305.40945 H 444.3701 Z"
         fill-rule="evenodd"
         id="path19" />
      <path
         fill="#000000"
         d="m 513.6563,188.93723 v 5.1875 h -1.73438 V 180.8591 h 4.89063 q 2.17187,0 3.40625,1.10938 1.23437,1.10937 1.23437,2.95312 0,1.92188 -1.21875,2.96875 -1.20312,1.04688 -3.45312,1.04688 z m 0,-1.4375 h 3.15625 q 1.39062,0 2.14062,-0.65625 0.75,-0.65625 0.75,-1.90625 0,-1.1875 -0.75,-1.89063 -0.75,-0.71875 -2.04687,-0.75 h -3.25 z m 14.53509,-1.71875 q -0.39062,-0.0625 -0.84375,-0.0625 -1.65625,0 -2.25,1.40625 v 7 h -1.67187 v -9.85938 h 1.64062 l 0.0156,1.14063 q 0.82812,-1.3125 2.35937,-1.3125 0.48438,0 0.75,0.125 z m 0.91187,3.32812 q 0,-1.45312 0.5625,-2.60937 0.57813,-1.15625 1.59375,-1.78125 1.01563,-0.625 2.3125,-0.625 2.01563,0 3.25,1.39062 1.25,1.39063 1.25,3.70313 v 0.125 q 0,1.4375 -0.54687,2.57812 -0.54688,1.14063 -1.57813,1.78125 -1.01562,0.64063 -2.35937,0.64063 -2,0 -3.25,-1.39063 -1.23438,-1.40625 -1.23438,-3.70312 z m 1.6875,0.20313 q 0,1.64062 0.76563,2.64062 0.76562,0.98438 2.03125,0.98438 1.29687,0 2.04687,-1 0.75,-1.01563 0.75,-2.82813 0,-1.625 -0.76562,-2.625 -0.76563,-1.01562 -2.04688,-1.01562 -1.25,0 -2.01562,1 -0.76563,0.98437 -0.76563,2.84375 z m 9.96802,4.8125 v -8.54688 h -1.5625 v -1.3125 h 1.5625 v -0.82812 q 0,-1.65625 0.9375,-2.57813 0.9375,-0.92187 2.67187,-0.92187 1.01563,0 2.57813,0.5625 l -0.28125,1.42187 q -1.14063,-0.45312 -2.17188,-0.45312 -1.09375,0 -1.57812,0.48437 -0.46875,0.48438 -0.46875,1.45313 v 0.85937 h 2.01562 v 1.3125 h -2.01562 v 8.54688 z m 7.01562,0 h -1.6875 v -9.85938 h 1.6875 z m 4.58014,0 h -1.6875 v -14 h 1.6875 z m 6.77741,0.1875 q -2,0 -3.26563,-1.3125 -1.25,-1.32813 -1.25,-3.53125 v -0.3125 q 0,-1.46875 0.5625,-2.60938 0.5625,-1.15625 1.5625,-1.79687 1.01563,-0.65625 2.1875,-0.65625 1.92188,0 2.98438,1.26562 1.0625,1.26563 1.0625,3.625 v 0.6875 h -6.67188 q 0.0312,1.46875 0.84375,2.375 0.82813,0.89063 2.07813,0.89063 0.89062,0 1.51562,-0.35938 0.625,-0.375 1.07813,-0.96875 l 1.03125,0.79688 q -1.23438,1.90625 -3.71875,1.90625 z m -0.20313,-8.84375 q -1.01562,0 -1.71875,0.75 -0.6875,0.73437 -0.84375,2.07812 h 4.9375 v -0.125 q -0.0781,-1.28125 -0.70312,-1.98437 -0.60938,-0.71875 -1.67188,-0.71875 z"
         fill-rule="nonzero"
         id="path21" />
      <path
         fill="#000000"
         d="m 485.08377,216.12473 h -1.75 V 202.8591 h 1.75 z m 4.5271,-9.85938 0.0469,1.23438 q 1.125,-1.40625 2.95313,-1.40625 3.125,0 3.15625,3.51562 v 6.51563 h -1.6875 v -6.51563 q -0.0156,-1.07812 -0.5,-1.57812 -0.46875,-0.51563 -1.48438,-0.51563 -0.8125,0 -1.4375,0.4375 -0.60937,0.4375 -0.96875,1.15625 v 7.01563 h -1.67187 v -9.85938 z m 14.43436,7.25 q 0,-0.6875 -0.51563,-1.0625 -0.51562,-0.375 -1.79687,-0.64062 -1.28125,-0.28125 -2.03125,-0.65625 -0.75,-0.39063 -1.10938,-0.92188 -0.35937,-0.53125 -0.35937,-1.26562 0,-1.20313 1.01562,-2.03125 1.03125,-0.84375 2.625,-0.84375 1.67188,0 2.71875,0.85937 1.04688,0.85938 1.04688,2.21875 h -1.6875 q 0,-0.70312 -0.59375,-1.20312 -0.59375,-0.5 -1.48438,-0.5 -0.92187,0 -1.4375,0.40625 -0.51562,0.39062 -0.51562,1.04687 0,0.60938 0.48437,0.92188 0.48438,0.3125 1.73438,0.59375 1.26562,0.28125 2.04687,0.67187 0.78125,0.39063 1.15625,0.9375 0.39063,0.54688 0.39063,1.34375 0,1.32813 -1.0625,2.125 -1.04688,0.79688 -2.73438,0.79688 -1.1875,0 -2.10937,-0.42188 -0.90625,-0.42187 -1.42188,-1.17187 -0.51562,-0.75 -0.51562,-1.625 h 1.6875 q 0.0469,0.84375 0.67187,1.34375 0.64063,0.5 1.6875,0.5 0.95313,0 1.53125,-0.39063 0.57813,-0.39062 0.57813,-1.03125 z m 6.1665,-9.64062 v 2.39062 h 1.84375 v 1.3125 h -1.84375 v 6.10938 q 0,0.59375 0.23438,0.89062 0.25,0.29688 0.84375,0.29688 0.29687,0 0.8125,-0.10938 v 1.35938 q -0.67188,0.1875 -1.29688,0.1875 -1.125,0 -1.70312,-0.6875 -0.57813,-0.6875 -0.57813,-1.9375 v -6.10938 h -1.79687 v -1.3125 h 1.79687 v -2.39062 z m 8.57861,3.90625 q -0.39062,-0.0625 -0.84375,-0.0625 -1.65625,0 -2.25,1.40625 v 7 h -1.67187 v -9.85938 h 1.64062 l 0.0156,1.14063 q 0.82812,-1.3125 2.35937,-1.3125 0.48438,0 0.75,0.125 z m 7.62543,7.375 q -0.98437,1.15625 -2.89062,1.15625 -1.57813,0 -2.40625,-0.92188 -0.8125,-0.92187 -0.82813,-2.70312 v -6.42188 h 1.6875 v 6.375 q 0,2.23438 1.82813,2.23438 1.92187,0 2.5625,-1.4375 v -7.17188 h 1.6875 v 9.85938 h -1.60938 z m 5.78461,-8.89063 0.0469,1.09375 q 1.07813,-1.26562 2.92188,-1.26562 2.0625,0 2.8125,1.57812 0.5,-0.71875 1.28125,-1.14062 0.79687,-0.4375 1.85937,-0.4375 3.25,0 3.29688,3.42187 v 6.60938 h -1.67188 v -6.5 q 0,-1.0625 -0.48437,-1.57813 -0.48438,-0.53125 -1.625,-0.53125 -0.9375,0 -1.5625,0.5625 -0.60938,0.5625 -0.71875,1.5 v 6.54688 h -1.6875 v -6.45313 q 0,-2.15625 -2.10938,-2.15625 -1.65625,0 -2.26562,1.40625 v 7.20313 h -1.6875 v -9.85938 z m 18.85156,10.04688 q -2,0 -3.26563,-1.3125 -1.25,-1.32813 -1.25,-3.53125 v -0.3125 q 0,-1.46875 0.5625,-2.60938 0.5625,-1.15625 1.5625,-1.79687 1.01563,-0.65625 2.1875,-0.65625 1.92188,0 2.98438,1.26562 1.0625,1.26563 1.0625,3.625 v 0.6875 h -6.67188 q 0.0312,1.46875 0.84375,2.375 0.82813,0.89063 2.07813,0.89063 0.89062,0 1.51562,-0.35938 0.625,-0.375 1.07813,-0.96875 l 1.03125,0.79688 q -1.23438,1.90625 -3.71875,1.90625 z m -0.20313,-8.84375 q -1.01562,0 -1.71875,0.75 -0.6875,0.73437 -0.84375,2.07812 h 4.9375 v -0.125 q -0.0781,-1.28125 -0.70312,-1.98437 -0.60938,-0.71875 -1.67188,-0.71875 z m 7.60254,-1.20313 0.0469,1.23438 q 1.125,-1.40625 2.95312,-1.40625 3.125,0 3.15625,3.51562 v 6.51563 h -1.6875 v -6.51563 q -0.0156,-1.07812 -0.5,-1.57812 -0.46875,-0.51563 -1.48437,-0.51563 -0.8125,0 -1.4375,0.4375 -0.60938,0.4375 -0.96875,1.15625 v 7.01563 h -1.67188 v -9.85938 z m 10.9812,-2.39062 v 2.39062 h 1.84375 v 1.3125 h -1.84375 v 6.10938 q 0,0.59375 0.23438,0.89062 0.25,0.29688 0.84375,0.29688 0.29687,0 0.8125,-0.10938 v 1.35938 q -0.67188,0.1875 -1.29688,0.1875 -1.125,0 -1.70312,-0.6875 -0.57813,-0.6875 -0.57813,-1.9375 v -6.10938 h -1.79687 v -1.3125 h 1.79687 v -2.39062 z m 7.89118,12.4375 q -2,0 -3.26563,-1.3125 -1.25,-1.32813 -1.25,-3.53125 v -0.3125 q 0,-1.46875 0.5625,-2.60938 0.5625,-1.15625 1.5625,-1.79687 1.01563,-0.65625 2.1875,-0.65625 1.92188,0 2.98438,1.26562 1.0625,1.26563 1.0625,3.625 v 0.6875 h -6.67188 q 0.0312,1.46875 0.84375,2.375 0.82813,0.89063 2.07813,0.89063 0.89062,0 1.51562,-0.35938 0.625,-0.375 1.07813,-0.96875 l 1.03125,0.79688 q -1.23438,1.90625 -3.71875,1.90625 z m -0.20313,-8.84375 q -1.01562,0 -1.71875,0.75 -0.6875,0.73437 -0.84375,2.07812 h 4.9375 v -0.125 q -0.0781,-1.28125 -0.70312,-1.98437 -0.60938,-0.71875 -1.67188,-0.71875 z m 5.58692,3.64062 q 0,-2.26562 1.07812,-3.64062 1.07813,-1.375 2.8125,-1.375 1.73438,0 2.75,1.17187 v -5.14062 h 1.6875 v 14 h -1.54687 l -0.0937,-1.0625 q -1,1.25 -2.8125,1.25 -1.70313,0 -2.79688,-1.40625 -1.07812,-1.40625 -1.07812,-3.65625 z m 1.6875,0.20313 q 0,1.67187 0.6875,2.625 0.70312,0.9375 1.92187,0.9375 1.60938,0 2.34375,-1.4375 v -4.53125 q -0.76562,-1.39063 -2.32812,-1.39063 -1.23438,0 -1.9375,0.95313 -0.6875,0.95312 -0.6875,2.84375 z"
         fill-rule="nonzero"
         id="path23" />
      <path
         fill="#000000"
         d="M 517.8248,238.12473 V 224.8591 h 4.32812 q 2.15625,0 3.25,0.89063 1.09375,0.89062 1.09375,2.64062 0,0.9375 -0.53125,1.65625 -0.53125,0.70313 -1.4375,1.09375 1.0625,0.3125 1.6875,1.15625 0.625,0.84375 0.625,2 0,1.78125 -1.15625,2.8125 -1.15625,1.01563 -3.26562,1.01563 z m 1.73437,-6.20313 v 4.76563 h 2.89063 q 1.21875,0 1.92187,-0.625 0.71875,-0.64063 0.71875,-1.75 0,-2.39063 -2.60937,-2.39063 z m 0,-1.40625 h 2.65625 q 1.14063,0 1.82813,-0.5625 0.6875,-0.57812 0.6875,-1.5625 0,-1.09375 -0.64063,-1.59375 -0.64062,-0.5 -1.9375,-0.5 h -2.59375 z m 15.69275,6.64063 q -0.98437,1.15625 -2.89062,1.15625 -1.57813,0 -2.40625,-0.92188 -0.8125,-0.92187 -0.82813,-2.70312 v -6.42188 h 1.6875 v 6.375 q 0,2.23438 1.82813,2.23438 1.92187,0 2.5625,-1.4375 v -7.17188 h 1.6875 v 9.85938 h -1.60938 z m 6.03461,0.96875 h -1.6875 v -9.85938 h 1.6875 z m -1.82812,-12.46875 q 0,-0.40625 0.25,-0.6875 0.25,-0.29688 0.73437,-0.29688 0.5,0 0.75,0.29688 0.26563,0.28125 0.26563,0.6875 0,0.40625 -0.26563,0.6875 -0.25,0.26562 -0.75,0.26562 -0.48437,0 -0.73437,-0.26562 -0.25,-0.28125 -0.25,-0.6875 z m 6.35559,12.46875 h -1.6875 v -14 h 1.6875 z m 2.2774,-5.01563 q 0,-2.26562 1.07813,-3.64062 1.07812,-1.375 2.8125,-1.375 1.73437,0 2.75,1.17187 v -5.14062 h 1.6875 v 14 h -1.54688 l -0.0937,-1.0625 q -1,1.25 -2.8125,1.25 -1.70312,0 -2.79687,-1.40625 -1.07813,-1.40625 -1.07813,-3.65625 z m 1.6875,0.20313 q 0,1.67187 0.6875,2.625 0.70313,0.9375 1.92188,0.9375 1.60937,0 2.34375,-1.4375 v -4.53125 q -0.76563,-1.39063 -2.32813,-1.39063 -1.23437,0 -1.9375,0.95313 -0.6875,0.95312 -0.6875,2.84375 z"
         fill-rule="nonzero"
         id="path25" />
      <path
         fill="#cfe2f3"
         d="M 706.5171,537.5171 H 891.80842 V 729.92652 H 706.5171 Z"
         fill-rule="evenodd"
         id="path27" />
      <path
         stroke="#000000"
         stroke-width="1"
         stroke-linejoin="round"
         stroke-linecap="butt"
         d="M 706.5171,537.5171 H 891.80842 V 729.92652 H 706.5171 Z"
         fill-rule="evenodd"
         id="path29" />
      <path
         fill="#000000"
         d="m 740.974,618.6418 v -13.35938 h 5.04688 q 1.32812,0 2.03125,0.125 0.96875,0.17188 1.64062,0.64063 0.67188,0.45312 1.07813,1.28125 0.40625,0.82812 0.40625,1.82812 0,1.70313 -1.09375,2.89063 -1.07813,1.17187 -3.92188,1.17187 h -3.42187 v 5.42188 z m 1.76563,-7 h 3.45312 q 1.71875,0 2.4375,-0.64063 0.71875,-0.64062 0.71875,-1.79687 0,-0.84375 -0.42187,-1.4375 -0.42188,-0.59375 -1.125,-0.78125 -0.4375,-0.125 -1.64063,-0.125 h -3.42187 z m 10.45922,7 v -9.67188 h 1.46875 v 1.46875 q 0.5625,-1.03125 1.03125,-1.35937 0.48438,-0.32813 1.0625,-0.32813 0.82813,0 1.6875,0.53125 l -0.5625,1.51563 q -0.60937,-0.35938 -1.20312,-0.35938 -0.54688,0 -0.96875,0.32813 -0.42188,0.32812 -0.60938,0.89062 -0.28125,0.875 -0.28125,1.92188 v 5.0625 z m 5.6189,-4.84375 q 0,-2.6875 1.48438,-3.96875 1.25,-1.07813 3.04687,-1.07813 2,0 3.26563,1.3125 1.26562,1.29688 1.26562,3.60938 0,1.85937 -0.5625,2.9375 -0.5625,1.0625 -1.64062,1.65625 -1.0625,0.59375 -2.32813,0.59375 -2.03125,0 -3.28125,-1.29688 -1.25,-1.3125 -1.25,-3.76562 z m 1.6875,0 q 0,1.85937 0.79688,2.79687 0.8125,0.92188 2.04687,0.92188 1.21875,0 2.03125,-0.92188 0.8125,-0.9375 0.8125,-2.84375 0,-1.79687 -0.8125,-2.71875 -0.8125,-0.92187 -2.03125,-0.92187 -1.23437,0 -2.04687,0.92187 -0.79688,0.90625 -0.79688,2.76563 z m 9.68823,4.84375 v -8.40625 h -1.45312 v -1.26563 h 1.45312 v -1.03125 q 0,-0.96875 0.17188,-1.45312 0.23437,-0.64063 0.82812,-1.03125 0.59375,-0.39063 1.67188,-0.39063 0.6875,0 1.53125,0.15625 l -0.25,1.4375 q -0.5,-0.0937 -0.95313,-0.0937 -0.75,0 -1.0625,0.32813 -0.3125,0.3125 -0.3125,1.1875 v 0.89062 h 1.89063 v 1.26563 h -1.89063 v 8.40625 z m 4.79267,-11.46875 v -1.89063 h 1.64062 v 1.89063 z m 0,11.46875 v -9.67188 h 1.64062 v 9.67188 z m 4.09796,0 v -13.35938 h 1.64062 v 13.35938 z m 10.81671,-3.10938 1.6875,0.20313 q -0.40625,1.48437 -1.48438,2.3125 -1.07812,0.8125 -2.76562,0.8125 -2.125,0 -3.375,-1.29688 -1.23438,-1.3125 -1.23438,-3.67187 0,-2.45313 1.25,-3.79688 1.26563,-1.34375 3.26563,-1.34375 1.9375,0 3.15625,1.32813 1.23437,1.3125 1.23437,3.70312 0,0.15625 0,0.4375 h -7.21875 q 0.0937,1.59375 0.90625,2.45313 0.8125,0.84375 2.01563,0.84375 0.90625,0 1.54687,-0.46875 0.64063,-0.48438 1.01563,-1.51563 z m -5.39063,-2.65625 h 5.40625 q -0.10937,-1.21875 -0.625,-1.82812 -0.78125,-0.95313 -2.03125,-0.95313 -1.125,0 -1.90625,0.76563 -0.76562,0.75 -0.84375,2.01562 z m 8.50074,1.75 v -1.64062 h 5.03125 v 1.64062 z m 13.30639,-1.21875 v -1.57812 h 5.65625 v 4.95312 q -1.29687,1.04688 -2.6875,1.57813 -1.375,0.51562 -2.84375,0.51562 -1.96875,0 -3.57812,-0.84375 -1.60938,-0.84375 -2.42188,-2.4375 -0.8125,-1.59375 -0.8125,-3.5625 0,-1.95312 0.8125,-3.64062 0.8125,-1.6875 2.34375,-2.5 1.53125,-0.82813 3.51563,-0.82813 1.45312,0 2.625,0.46875 1.17187,0.46875 1.82812,1.3125 0.67188,0.82813 1.01563,2.17188 l -1.59375,0.4375 q -0.29688,-1.01563 -0.75,-1.59375 -0.4375,-0.59375 -1.26563,-0.9375 -0.82812,-0.34375 -1.84375,-0.34375 -1.20312,0 -2.09375,0.375 -0.89062,0.35937 -1.4375,0.96875 -0.53125,0.59375 -0.82812,1.3125 -0.51563,1.23437 -0.51563,2.6875 0,1.78125 0.60938,2.98437 0.625,1.20313 1.79687,1.79688 1.17188,0.57812 2.5,0.57812 1.14063,0 2.23438,-0.4375 1.09375,-0.45312 1.65625,-0.95312 v -2.48438 z m 14.38642,5.23438 v -1.42188 q -1.125,1.64063 -3.0625,1.64063 -0.85938,0 -1.60938,-0.32813 -0.73437,-0.32812 -1.09375,-0.82812 -0.35937,-0.5 -0.5,-1.21875 -0.10937,-0.46875 -0.10937,-1.53125 v -5.98438 h 1.64062 v 5.35938 q 0,1.28125 0.10938,1.73437 0.15625,0.64063 0.65625,1.01563 0.5,0.375 1.23437,0.375 0.73438,0 1.375,-0.375 0.65625,-0.39063 0.92188,-1.03125 0.26562,-0.65625 0.26562,-1.89063 v -5.1875 h 1.64063 v 9.67188 z m 4.0476,-11.46875 v -1.89063 h 1.64063 v 1.89063 z m 0,11.46875 v -9.67188 h 1.64063 v 9.67188 z m 10.41046,0 v -1.21875 q -0.90625,1.4375 -2.70312,1.4375 -1.15625,0 -2.125,-0.64063 -0.96875,-0.64062 -1.5,-1.78125 -0.53125,-1.14062 -0.53125,-2.625 0,-1.45312 0.48437,-2.625 0.48438,-1.1875 1.4375,-1.8125 0.96875,-0.625 2.17188,-0.625 0.875,0 1.54687,0.375 0.6875,0.35938 1.10938,0.95313 v -4.79688 h 1.64062 v 13.35938 z m -5.17187,-4.82813 q 0,1.85938 0.78125,2.78125 0.78125,0.92188 1.84375,0.92188 1.07812,0 1.82812,-0.875 0.75,-0.89063 0.75,-2.6875 0,-1.98438 -0.76562,-2.90625 -0.76563,-0.9375 -1.89063,-0.9375 -1.07812,0 -1.8125,0.89062 -0.73437,0.89063 -0.73437,2.8125 z m 15.90698,1.71875 1.6875,0.20313 q -0.40625,1.48437 -1.48437,2.3125 -1.07813,0.8125 -2.76563,0.8125 -2.125,0 -3.375,-1.29688 -1.23437,-1.3125 -1.23437,-3.67187 0,-2.45313 1.25,-3.79688 1.26562,-1.34375 3.26562,-1.34375 1.9375,0 3.15625,1.32813 1.23438,1.3125 1.23438,3.70312 0,0.15625 0,0.4375 h -7.21875 q 0.0937,1.59375 0.90625,2.45313 0.8125,0.84375 2.01562,0.84375 0.90625,0 1.54688,-0.46875 0.64062,-0.48438 1.01562,-1.51563 z m -5.39062,-2.65625 h 5.40625 q -0.10938,-1.21875 -0.625,-1.82812 -0.78125,-0.95313 -2.03125,-0.95313 -1.125,0 -1.90625,0.76563 -0.76563,0.75 -0.84375,2.01562 z m 15.40692,5.76563 v -1.21875 q -0.90625,1.4375 -2.70313,1.4375 -1.15625,0 -2.125,-0.64063 -0.96875,-0.64062 -1.5,-1.78125 -0.53125,-1.14062 -0.53125,-2.625 0,-1.45312 0.48438,-2.625 0.48437,-1.1875 1.4375,-1.8125 0.96875,-0.625 2.17187,-0.625 0.875,0 1.54688,0.375 0.6875,0.35938 1.10937,0.95313 v -4.79688 h 1.64063 v 13.35938 z m -5.17188,-4.82813 q 0,1.85938 0.78125,2.78125 0.78125,0.92188 1.84375,0.92188 1.07813,0 1.82813,-0.875 0.75,-0.89063 0.75,-2.6875 0,-1.98438 -0.76563,-2.90625 -0.76562,-0.9375 -1.89062,-0.9375 -1.07813,0 -1.8125,0.89062 -0.73438,0.89063 -0.73438,2.8125 z"
         fill-rule="nonzero"
         id="path31" />
      <path
         fill="#000000"
         d="m 758.07874,634.1418 q 0,-3.32813 1.78125,-5.20313 1.78125,-1.89062 4.60938,-1.89062 1.84375,0 3.32812,0.89062 1.48438,0.875 2.26563,2.46875 0.78125,1.57813 0.78125,3.57813 0,2.03125 -0.82813,3.64062 -0.8125,1.59375 -2.3125,2.42188 -1.5,0.82812 -3.25,0.82812 -1.875,0 -3.35937,-0.90625 -1.48438,-0.92187 -2.25,-2.5 -0.76563,-1.57812 -0.76563,-3.32812 z m 1.8125,0.0156 q 0,2.42188 1.29688,3.8125 1.29687,1.39063 3.26562,1.39063 2,0 3.28125,-1.40625 1.28125,-1.40625 1.28125,-3.98438 0,-1.625 -0.54687,-2.84375 -0.54688,-1.21875 -1.60938,-1.875 -1.0625,-0.67187 -2.375,-0.67187 -1.89062,0 -3.25,1.29687 -1.34375,1.28125 -1.34375,4.28125 z m 13.0271,10.1875 v -13.375 h 1.48438 v 1.25 q 0.53125,-0.73437 1.1875,-1.09375 0.67187,-0.375 1.625,-0.375 1.23437,0 2.17187,0.64063 0.95313,0.625 1.4375,1.79687 0.48438,1.15625 0.48438,2.54688 0,1.48437 -0.53125,2.67187 -0.53125,1.1875 -1.54688,1.82813 -1.01562,0.625 -2.14062,0.625 -0.8125,0 -1.46875,-0.34375 -0.65625,-0.34375 -1.0625,-0.875 v 4.70312 z m 1.48438,-8.48437 q 0,1.85937 0.75,2.76562 0.76562,0.89063 1.82812,0.89063 1.09375,0 1.875,-0.92188 0.78125,-0.9375 0.78125,-2.875 0,-1.84375 -0.76562,-2.76562 -0.75,-0.92188 -1.8125,-0.92188 -1.04688,0 -1.85938,0.98438 -0.79687,0.96875 -0.79687,2.84375 z m 12.46942,3.3125 0.23437,1.45312 q -0.6875,0.14063 -1.23437,0.14063 -0.89063,0 -1.39063,-0.28125 -0.48437,-0.28125 -0.6875,-0.73438 -0.20312,-0.46875 -0.20312,-1.9375 v -5.57812 h -1.20313 v -1.26563 h 1.20313 v -2.39062 l 1.625,-0.98438 v 3.375 h 1.65625 v 1.26563 h -1.65625 v 5.67187 q 0,0.6875 0.0781,0.89063 0.0937,0.20312 0.28125,0.32812 0.20313,0.10938 0.57813,0.10938 0.26562,0 0.71875,-0.0625 z m 1.60522,-10 v -1.89063 h 1.64063 v 1.89063 z m 0,11.46875 v -9.67188 h 1.64063 v 9.67188 z m 4.14478,0 v -9.67188 h 1.46875 v 1.35938 q 0.45312,-0.71875 1.20312,-1.14063 0.76563,-0.4375 1.71875,-0.4375 1.07813,0 1.76563,0.45313 0.6875,0.4375 0.96875,1.23437 1.15625,-1.6875 2.98437,-1.6875 1.45313,0 2.21875,0.79688 0.78125,0.79687 0.78125,2.45312 v 6.64063 h -1.64062 v -6.09375 q 0,-0.98438 -0.15625,-1.40625 -0.15625,-0.4375 -0.57813,-0.70313 -0.42187,-0.26562 -0.98437,-0.26562 -1.01563,0 -1.6875,0.6875 -0.67188,0.67187 -0.67188,2.15625 v 5.625 h -1.64062 v -6.28125 q 0,-1.09375 -0.40625,-1.64063 -0.40625,-0.54687 -1.3125,-0.54687 -0.6875,0 -1.28125,0.35937 -0.59375,0.35938 -0.85938,1.0625 -0.25,0.70313 -0.25,2.03125 v 5.01563 z m 15.54083,-11.46875 v -1.89063 h 1.64062 v 1.89063 z m 0,11.46875 v -9.67188 h 1.64062 v 9.67188 z m 3.26983,0 v -1.32813 l 6.15625,-7.07812 q -1.04687,0.0625 -1.84375,0.0625 h -3.9375 v -1.32813 h 7.90625 v 1.07813 l -5.25,6.14062 -1,1.125 q 1.09375,-0.0781 2.0625,-0.0781 h 4.46875 v 1.40625 z m 16.82813,-3.10938 1.6875,0.20313 q -0.40625,1.48437 -1.48438,2.3125 -1.07812,0.8125 -2.76562,0.8125 -2.125,0 -3.375,-1.29688 -1.23438,-1.3125 -1.23438,-3.67187 0,-2.45313 1.25,-3.79688 1.26563,-1.34375 3.26563,-1.34375 1.9375,0 3.15625,1.32813 1.23437,1.3125 1.23437,3.70312 0,0.15625 0,0.4375 h -7.21875 q 0.0937,1.59375 0.90625,2.45313 0.8125,0.84375 2.01563,0.84375 0.90625,0 1.54687,-0.46875 0.64063,-0.48438 1.01563,-1.51563 z m -5.39063,-2.65625 h 5.40625 q -0.10937,-1.21875 -0.625,-1.82812 -0.78125,-0.95313 -2.03125,-0.95313 -1.125,0 -1.90625,0.76563 -0.76562,0.75 -0.84375,2.01562 z m 15.40693,5.76563 v -1.21875 q -0.90625,1.4375 -2.70313,1.4375 -1.15625,0 -2.125,-0.64063 -0.96875,-0.64062 -1.5,-1.78125 -0.53125,-1.14062 -0.53125,-2.625 0,-1.45312 0.48438,-2.625 0.48437,-1.1875 1.4375,-1.8125 0.96875,-0.625 2.17187,-0.625 0.875,0 1.54688,0.375 0.6875,0.35938 1.10937,0.95313 v -4.79688 h 1.64063 v 13.35938 z m -5.17188,-4.82813 q 0,1.85938 0.78125,2.78125 0.78125,0.92188 1.84375,0.92188 1.07813,0 1.82813,-0.875 0.75,-0.89063 0.75,-2.6875 0,-1.98438 -0.76563,-2.90625 -0.76562,-0.9375 -1.89062,-0.9375 -1.07813,0 -1.8125,0.89062 -0.73438,0.89063 -0.73438,2.8125 z"
         fill-rule="nonzero"
         id="path33" />
      <path
         fill="#000000"
         d="m 779.7798,662.6418 v -13.35938 h 5.01563 q 1.53125,0 2.45312,0.40625 0.92188,0.40625 1.4375,1.25 0.53125,0.84375 0.53125,1.76563 0,0.85937 -0.46875,1.625 -0.45312,0.75 -1.39062,1.20312 1.20312,0.35938 1.85937,1.21875 0.65625,0.85938 0.65625,2.01563 0,0.9375 -0.40625,1.75 -0.39062,0.79687 -0.98437,1.23437 -0.57813,0.4375 -1.45313,0.67188 -0.875,0.21875 -2.15625,0.21875 z m 1.78125,-7.75 h 2.875 q 1.1875,0 1.6875,-0.14063 0.67188,-0.20312 1.01563,-0.67187 0.34375,-0.46875 0.34375,-1.17188 0,-0.65625 -0.32813,-1.15625 -0.3125,-0.51562 -0.90625,-0.70312 -0.59375,-0.1875 -2.03125,-0.1875 h -2.65625 z m 0,6.17187 h 3.3125 q 0.85938,0 1.20313,-0.0625 0.60937,-0.10937 1.01562,-0.35937 0.42188,-0.26563 0.6875,-0.75 0.26563,-0.48438 0.26563,-1.125 0,-0.75 -0.39063,-1.29688 -0.375,-0.54687 -1.0625,-0.76562 -0.67187,-0.23438 -1.95312,-0.23438 h -3.07813 z m 16.86542,1.57813 v -1.42188 q -1.125,1.64063 -3.0625,1.64063 -0.85938,0 -1.60938,-0.32813 -0.73437,-0.32812 -1.09375,-0.82812 -0.35937,-0.5 -0.5,-1.21875 -0.10937,-0.46875 -0.10937,-1.53125 v -5.98438 h 1.64062 v 5.35938 q 0,1.28125 0.10938,1.73437 0.15625,0.64063 0.65625,1.01563 0.5,0.375 1.23437,0.375 0.73438,0 1.375,-0.375 0.65625,-0.39063 0.92188,-1.03125 0.26562,-0.65625 0.26562,-1.89063 v -5.1875 h 1.64063 v 9.67188 z m 4.0476,-11.46875 v -1.89063 h 1.64063 v 1.89063 z m 0,11.46875 v -9.67188 h 1.64063 v 9.67188 z m 4.09797,0 v -13.35938 h 1.64062 v 13.35938 z m 10.45733,0 v -1.21875 q -0.90625,1.4375 -2.70312,1.4375 -1.15625,0 -2.125,-0.64063 -0.96875,-0.64062 -1.5,-1.78125 -0.53125,-1.14062 -0.53125,-2.625 0,-1.45312 0.48437,-2.625 0.48438,-1.1875 1.4375,-1.8125 0.96875,-0.625 2.17188,-0.625 0.875,0 1.54687,0.375 0.6875,0.35938 1.10938,0.95313 v -4.79688 h 1.64062 v 13.35938 z m -5.17187,-4.82813 q 0,1.85938 0.78125,2.78125 0.78125,0.92188 1.84375,0.92188 1.07812,0 1.82812,-0.875 0.75,-0.89063 0.75,-2.6875 0,-1.98438 -0.76562,-2.90625 -0.76563,-0.9375 -1.89063,-0.9375 -1.07812,0 -1.8125,0.89062 -0.73437,0.89063 -0.73437,2.8125 z"
         fill-rule="nonzero"
         id="path35" />
      <path
         fill="#cfe2f3"
         d="m 477.96982,346.63385 h 118.09134 v 103.68649 c -59.04565,0 -59.04565,39.50647 -118.09134,17.0596 z"
         fill-rule="evenodd"
         id="path37" />
      <path
         stroke="#000000"
         stroke-width="1"
         stroke-linejoin="round"
         stroke-linecap="butt"
         d="m 477.96982,346.63385 h 118.09134 v 103.68649 c -59.04565,0 -59.04565,39.50647 -118.09134,17.0596 z"
         fill-rule="evenodd"
         id="path39" />
      <path
         fill="#000000"
         d="m 492.03467,378.2096 v 5.1875 h -1.73438 v -13.26562 h 4.89063 q 2.17187,0 3.40625,1.10937 1.23437,1.10938 1.23437,2.95313 0,1.92187 -1.21875,2.96875 -1.20312,1.04687 -3.45312,1.04687 z m 0,-1.4375 h 3.15625 q 1.39062,0 2.14062,-0.65625 0.75,-0.65625 0.75,-1.90625 0,-1.1875 -0.75,-1.89062 -0.75,-0.71875 -2.04687,-0.75 h -3.25 z m 14.5351,-1.71875 q -0.39063,-0.0625 -0.84375,-0.0625 -1.65625,0 -2.25,1.40625 v 7 h -1.67188 v -9.85937 h 1.64063 l 0.0156,1.14062 q 0.82813,-1.3125 2.35938,-1.3125 0.48437,0 0.75,0.125 z m 0.91183,3.32813 q 0,-1.45313 0.5625,-2.60938 0.57812,-1.15625 1.59375,-1.78125 1.01562,-0.625 2.3125,-0.625 2.01566,0 3.25003,1.39063 1.25,1.39062 1.25,3.70312 v 0.125 q 0,1.4375 -0.54687,2.57813 -0.54688,1.14062 -1.57813,1.78125 -1.01562,0.64062 -2.35941,0.64062 -2,0 -3.25,-1.39062 -1.23437,-1.40625 -1.23437,-3.70313 z m 1.6875,0.20312 q 0,1.64063 0.76562,2.64063 0.76563,0.98437 2.03125,0.98437 1.29691,0 2.04691,-1 0.75,-1.01562 0.75,-2.82812 0,-1.625 -0.76562,-2.625 -0.76563,-1.01563 -2.04691,-1.01563 -1.25,0 -2.01563,1 -0.76562,0.98438 -0.76562,2.84375 z m 9.96805,4.8125 v -8.54687 h -1.5625 v -1.3125 h 1.5625 v -0.82813 q 0,-1.65625 0.9375,-2.57812 0.9375,-0.92188 2.67187,-0.92188 1.01563,0 2.57813,0.5625 l -0.28125,1.42188 q -1.14063,-0.45313 -2.17188,-0.45313 -1.09375,0 -1.57812,0.48438 -0.46875,0.48437 -0.46875,1.45312 v 0.85938 h 2.01562 v 1.3125 h -2.01562 v 8.54687 z m 7.01562,0 h -1.6875 v -9.85937 h 1.6875 z m 4.58014,0 h -1.6875 v -14 h 1.6875 z m 6.77741,0.1875 q -2,0 -3.26563,-1.3125 -1.25,-1.32812 -1.25,-3.53125 v -0.3125 q 0,-1.46875 0.5625,-2.60937 0.5625,-1.15625 1.5625,-1.79688 1.01563,-0.65625 2.1875,-0.65625 1.92188,0 2.98438,1.26563 1.0625,1.26562 1.0625,3.625 v 0.6875 h -6.67188 q 0.0312,1.46875 0.84375,2.375 0.82813,0.89062 2.07813,0.89062 0.89062,0 1.51562,-0.35937 0.625,-0.375 1.07813,-0.96875 l 1.03125,0.79687 q -1.23438,1.90625 -3.71875,1.90625 z m -0.20313,-8.84375 q -1.01562,0 -1.71875,0.75 -0.6875,0.73438 -0.84375,2.07813 h 4.9375 v -0.125 q -0.0781,-1.28125 -0.70312,-1.98438 -0.60938,-0.71875 -1.67188,-0.71875 z m 10.89295,8.65625 v -13.26562 h 3.73437 q 1.73438,0 3.0625,0.76562 1.32813,0.76563 2.04688,2.1875 0.73437,1.40625 0.73437,3.23438 v 0.84375 q 0,1.875 -0.71875,3.29687 -0.71875,1.40625 -2.0625,2.17188 -1.34375,0.75 -3.14062,0.76562 z m 1.73437,-11.82812 v 10.39062 h 1.84375 q 2.03125,0 3.15625,-1.25 1.125,-1.25 1.125,-3.57812 v -0.78125 q 0,-2.25 -1.0625,-3.5 -1.0625,-1.26563 -3.01562,-1.28125 z m 16.3122,11.82812 q -0.14063,-0.29687 -0.23438,-1.03125 -1.17187,1.21875 -2.8125,1.21875 -1.45312,0 -2.39062,-0.82812 -0.92188,-0.82813 -0.92188,-2.09375 0,-1.53125 1.15625,-2.375 1.17188,-0.85938 3.29688,-0.85938 h 1.64062 v -0.78125 q 0,-0.89062 -0.53125,-1.40625 -0.51562,-0.53125 -1.54687,-0.53125 -0.90625,0 -1.51563,0.46875 -0.60937,0.45313 -0.60937,1.09375 h -1.70313 q 0,-0.73437 0.51563,-1.42187 0.53125,-0.6875 1.42187,-1.07813 0.90625,-0.40625 1.98438,-0.40625 1.70312,0 2.67187,0.85938 0.96875,0.84375 1,2.32812 v 4.53125 q 0,1.35938 0.34375,2.17188 v 0.14062 z m -2.79688,-1.28125 q 0.79688,0 1.5,-0.40625 0.71875,-0.42187 1.03125,-1.07812 v -2.01563 h -1.3125 q -3.10937,0 -3.10937,1.8125 0,0.79688 0.53125,1.25 0.53125,0.4375 1.35937,0.4375 z m 9.14801,-10.96875 v 2.39063 h 1.84375 v 1.3125 h -1.84375 v 6.10937 q 0,0.59375 0.23438,0.89063 0.25,0.29687 0.84375,0.29687 0.29687,0 0.8125,-0.10937 v 1.35937 q -0.67188,0.1875 -1.29688,0.1875 -1.125,0 -1.70312,-0.6875 -0.57813,-0.6875 -0.57813,-1.9375 v -6.10937 h -1.79687 v -1.3125 h 1.79687 v -2.39063 z m 9.89111,12.25 q -0.14062,-0.29687 -0.23437,-1.03125 -1.17188,1.21875 -2.8125,1.21875 -1.45313,0 -2.39063,-0.82812 -0.92187,-0.82813 -0.92187,-2.09375 0,-1.53125 1.15625,-2.375 1.17187,-0.85938 3.29687,-0.85938 h 1.64063 v -0.78125 q 0,-0.89062 -0.53125,-1.40625 -0.51563,-0.53125 -1.54688,-0.53125 -0.90625,0 -1.51562,0.46875 -0.60938,0.45313 -0.60938,1.09375 h -1.70312 q 0,-0.73437 0.51562,-1.42187 0.53125,-0.6875 1.42188,-1.07813 0.90625,-0.40625 1.98437,-0.40625 1.70313,0 2.67188,0.85938 0.96875,0.84375 1,2.32812 v 4.53125 q 0,1.35938 0.34375,2.17188 v 0.14062 z m -2.79687,-1.28125 q 0.79687,0 1.5,-0.40625 0.71875,-0.42187 1.03125,-1.07812 v -2.01563 h -1.3125 q -3.10938,0 -3.10938,1.8125 0,0.79688 0.53125,1.25 0.53125,0.4375 1.35938,0.4375 z"
         fill-rule="nonzero"
         id="path41" />
      <path
         fill="#000000"
         d="m 501.1702,405.3971 v -8.54687 h -1.5625 v -1.3125 h 1.5625 v -1.01563 q 0,-1.57812 0.84375,-2.4375 0.84375,-0.875 2.39063,-0.875 0.59375,0 1.15625,0.15625 l -0.0937,1.375 q -0.42188,-0.0937 -0.90625,-0.0937 -0.8125,0 -1.26563,0.48438 -0.4375,0.48437 -0.4375,1.375 v 1.03125 h 2.09375 v 1.3125 h -2.09375 v 8.54687 z m 10.41434,-8.34375 q -0.39063,-0.0625 -0.84375,-0.0625 -1.65625,0 -2.25,1.40625 v 7 h -1.67188 v -9.85937 h 1.64063 l 0.0156,1.14062 q 0.82813,-1.3125 2.35938,-1.3125 0.48437,0 0.75,0.125 z m 0.91186,3.32813 q 0,-1.45313 0.5625,-2.60938 0.57813,-1.15625 1.59375,-1.78125 1.01563,-0.625 2.3125,-0.625 2.01563,0 3.25,1.39063 1.25,1.39062 1.25,3.70312 v 0.125 q 0,1.4375 -0.54687,2.57813 -0.54688,1.14062 -1.57813,1.78125 -1.01562,0.64062 -2.35937,0.64062 -2,0 -3.25,-1.39062 -1.23438,-1.40625 -1.23438,-3.70313 z m 1.6875,0.20312 q 0,1.64063 0.76563,2.64063 0.76562,0.98437 2.03125,0.98437 1.29687,0 2.04687,-1 0.75,-1.01562 0.75,-2.82812 0,-1.625 -0.76562,-2.625 -0.76563,-1.01563 -2.04688,-1.01563 -1.25,0 -2.01562,1 -0.76563,0.98438 -0.76563,2.84375 z m 10.98365,-5.04687 0.0469,1.09375 q 1.07813,-1.26563 2.92188,-1.26563 2.0625,0 2.8125,1.57813 0.5,-0.71875 1.28125,-1.14063 0.79687,-0.4375 1.85937,-0.4375 3.25,0 3.29688,3.42188 v 6.60937 h -1.67188 v -6.5 q 0,-1.0625 -0.48437,-1.57812 -0.48438,-0.53125 -1.625,-0.53125 -0.9375,0 -1.5625,0.5625 -0.60938,0.5625 -0.71875,1.5 v 6.54687 h -1.6875 v -6.45312 q 0,-2.15625 -2.10938,-2.15625 -1.65625,0 -2.26562,1.40625 v 7.20312 h -1.6875 v -9.85937 z m 21.67315,-2.39063 v 2.39063 h 1.84375 v 1.3125 h -1.84375 v 6.10937 q 0,0.59375 0.23438,0.89063 0.25,0.29687 0.84375,0.29687 0.29687,0 0.8125,-0.10937 v 1.35937 q -0.67188,0.1875 -1.29688,0.1875 -1.125,0 -1.70312,-0.6875 -0.57813,-0.6875 -0.57813,-1.9375 v -6.10937 h -1.79687 v -1.3125 h 1.79687 v -2.39063 z m 7.89112,12.4375 q -2,0 -3.26563,-1.3125 -1.25,-1.32812 -1.25,-3.53125 v -0.3125 q 0,-1.46875 0.5625,-2.60937 0.5625,-1.15625 1.5625,-1.79688 1.01563,-0.65625 2.1875,-0.65625 1.92188,0 2.98438,1.26563 1.0625,1.26562 1.0625,3.625 v 0.6875 h -6.67188 q 0.0312,1.46875 0.84375,2.375 0.82813,0.89062 2.07813,0.89062 0.89062,0 1.51562,-0.35937 0.625,-0.375 1.07813,-0.96875 l 1.03125,0.79687 q -1.23438,1.90625 -3.71875,1.90625 z m -0.20313,-8.84375 q -1.01562,0 -1.71875,0.75 -0.6875,0.73438 -0.84375,2.07813 h 4.9375 v -0.125 q -0.0781,-1.28125 -0.70312,-1.98438 -0.60938,-0.71875 -1.67188,-0.71875 z m 11.74323,6.04688 q 0,-0.6875 -0.51563,-1.0625 -0.51562,-0.375 -1.79687,-0.64063 -1.28125,-0.28125 -2.03125,-0.65625 -0.75,-0.39062 -1.10938,-0.92187 -0.35937,-0.53125 -0.35937,-1.26563 0,-1.20312 1.01562,-2.03125 1.03125,-0.84375 2.625,-0.84375 1.67188,0 2.71875,0.85938 1.04688,0.85937 1.04688,2.21875 h -1.6875 q 0,-0.70313 -0.59375,-1.20313 -0.59375,-0.5 -1.48438,-0.5 -0.92187,0 -1.4375,0.40625 -0.51562,0.39063 -0.51562,1.04688 0,0.60937 0.48437,0.92187 0.48438,0.3125 1.73438,0.59375 1.26562,0.28125 2.04687,0.67188 0.78125,0.39062 1.15625,0.9375 0.39063,0.54687 0.39063,1.34375 0,1.32812 -1.0625,2.125 -1.04688,0.79687 -2.73438,0.79687 -1.1875,0 -2.10937,-0.42187 -0.90625,-0.42188 -1.42188,-1.17188 -0.51562,-0.75 -0.51562,-1.625 h 1.6875 q 0.0469,0.84375 0.67187,1.34375 0.64063,0.5 1.6875,0.5 0.95313,0 1.53125,-0.39062 0.57813,-0.39063 0.57813,-1.03125 z m 6.1665,-9.64063 v 2.39063 h 1.84375 v 1.3125 h -1.84375 v 6.10937 q 0,0.59375 0.23437,0.89063 0.25,0.29687 0.84375,0.29687 0.29688,0 0.8125,-0.10937 v 1.35937 q -0.67187,0.1875 -1.29687,0.1875 -1.125,0 -1.70313,-0.6875 -0.57812,-0.6875 -0.57812,-1.9375 v -6.10937 h -1.79688 v -1.3125 h 1.79688 v -2.39063 z"
         fill-rule="nonzero"
         id="path43" />
      <path
         fill="#000000"
         d="m 529.61676,419.05334 q -0.39063,-0.0625 -0.84375,-0.0625 -1.65625,0 -2.25,1.40625 v 7 h -1.67188 v -9.85938 h 1.64063 l 0.0156,1.14063 q 0.82813,-1.3125 2.35938,-1.3125 0.48437,0 0.75,0.125 z m 7.62537,7.375 q -0.98438,1.15625 -2.89063,1.15625 -1.57812,0 -2.40625,-0.92188 -0.8125,-0.92187 -0.82812,-2.70312 v -6.42188 h 1.6875 v 6.375 q 0,2.23438 1.82812,2.23438 1.92188,0 2.5625,-1.4375 v -7.17188 h 1.6875 v 9.85938 h -1.60937 z m 5.80023,-8.89063 0.0469,1.23438 q 1.125,-1.40625 2.95313,-1.40625 3.125,0 3.15625,3.51562 v 6.51563 h -1.6875 v -6.51563 q -0.0156,-1.07812 -0.5,-1.57812 -0.46875,-0.51563 -1.48438,-0.51563 -0.8125,0 -1.4375,0.4375 -0.60937,0.4375 -0.96875,1.15625 v 7.01563 h -1.67187 v -9.85938 z"
         fill-rule="nonzero"
         id="path45" />
      <path
         fill="#cfe2f3"
         d="m 469.96982,540.36163 h 101.66245 v 90.60828 c -50.82849,0 -50.82849,34.86151 -101.66245,17.43073 z m 8.37573,0 V 528.6148 h 100.96811 v 91.1767 c -3.83795,0 -7.68139,0.63153 -7.68139,0.63153 v -80.0614 z m 7.87277,-11.74683 v -11.46258 h 101.84284 v 90.89245 c -4.37378,0 -8.7475,0.4737 -8.7475,0.4737 V 528.6148 Z"
         fill-rule="evenodd"
         id="path47" />
      <path
         fill="#000000"
         fill-opacity="0"
         d="m 469.96982,540.36163 h 101.66245 v 90.60828 c -50.82849,0 -50.82849,34.86151 -101.66245,17.43073 z m 8.37573,0 V 528.6148 h 100.96811 v 91.1767 c -3.83795,0 -7.68139,0.63153 -7.68139,0.63153 M 486.21833,528.6148 v -11.46258 h 101.84283 v 90.89246 c -4.37378,0 -8.7475,0.47369 -8.7475,0.47369"
         fill-rule="evenodd"
         id="path49" />
      <path
         fill="#000000"
         fill-opacity="0"
         d="m 469.96982,648.40063 c 50.83395,17.43079 50.83395,-17.43073 101.66245,-17.43073 v -10.54687 c 0,0 3.84344,-0.63153 7.68139,-0.63153 v -11.27313 c 0,0 4.37372,-0.4737 8.7475,-0.4737 V 517.15222 H 486.21833 v 11.46258 h -7.87278 v 11.74683 h -8.37573 z"
         fill-rule="evenodd"
         id="path51" />
      <path
         stroke="#000000"
         stroke-width="1"
         stroke-linejoin="round"
         stroke-linecap="butt"
         d="m 469.96982,540.36163 h 101.66245 v 90.60828 c -50.82849,0 -50.82849,34.86151 -101.66245,17.43073 z m 8.37573,0 V 528.6148 h 100.96811 v 91.1767 c -3.83795,0 -7.68139,0.63153 -7.68139,0.63153 M 486.21833,528.6148 v -11.46258 h 101.84283 v 90.89246 c -4.37378,0 -8.7475,0.47369 -8.7475,0.47369"
         fill-rule="evenodd"
         id="path53" />
      <path
         fill="#000000"
         d="m 482.25107,563.11365 v 5.1875 h -1.73437 v -13.26563 h 4.89062 q 2.17188,0 3.40625,1.10938 1.23438,1.10937 1.23438,2.95312 0,1.92188 -1.21875,2.96875 -1.20313,1.04688 -3.45313,1.04688 z m 0,-1.4375 h 3.15625 q 1.39063,0 2.14063,-0.65625 0.75,-0.65625 0.75,-1.90625 0,-1.1875 -0.75,-1.89063 -0.75,-0.71875 -2.04688,-0.75 h -3.25 z m 14.5351,-1.71875 q -0.39063,-0.0625 -0.84375,-0.0625 -1.65625,0 -2.25,1.40625 v 7 h -1.67188 v -9.85938 h 1.64063 l 0.0156,1.14063 q 0.82813,-1.3125 2.35938,-1.3125 0.48437,0 0.75,0.125 z m 0.91183,3.32812 q 0,-1.45312 0.5625,-2.60937 0.57812,-1.15625 1.59375,-1.78125 1.01562,-0.625 2.3125,-0.625 2.01562,0 3.25,1.39062 1.25,1.39063 1.25,3.70313 v 0.125 q 0,1.4375 -0.54688,2.57812 -0.54687,1.14063 -1.57812,1.78125 -1.01563,0.64063 -2.35938,0.64063 -2,0 -3.25,-1.39063 -1.23437,-1.40625 -1.23437,-3.70312 z m 1.6875,0.20313 q 0,1.64062 0.76562,2.64062 0.76563,0.98438 2.03125,0.98438 1.29688,0 2.04688,-1 0.75,-1.01563 0.75,-2.82813 0,-1.625 -0.76563,-2.625 -0.76562,-1.01562 -2.04687,-1.01562 -1.25,0 -2.01563,1 -0.76562,0.98437 -0.76562,2.84375 z m 9.96802,4.8125 v -8.54688 h -1.5625 v -1.3125 h 1.5625 v -0.82812 q 0,-1.65625 0.9375,-2.57813 0.9375,-0.92187 2.67187,-0.92187 1.01563,0 2.57813,0.5625 l -0.28125,1.42187 q -1.14063,-0.45312 -2.17188,-0.45312 -1.09375,0 -1.57812,0.48437 -0.46875,0.48438 -0.46875,1.45313 v 0.85937 h 2.01562 v 1.3125 h -2.01562 v 8.54688 z m 7.01562,0 h -1.6875 v -9.85938 h 1.6875 z m 4.58014,0 h -1.6875 v -14 h 1.6875 z m 6.77747,0.1875 q -2,0 -3.26563,-1.3125 -1.25,-1.32813 -1.25,-3.53125 v -0.3125 q 0,-1.46875 0.5625,-2.60938 0.5625,-1.15625 1.5625,-1.79687 1.01563,-0.65625 2.1875,-0.65625 1.92188,0 2.98438,1.26562 1.0625,1.26563 1.0625,3.625 v 0.6875 h -6.67188 q 0.0312,1.46875 0.84375,2.375 0.82813,0.89063 2.07813,0.89063 0.89062,0 1.51562,-0.35938 0.625,-0.375 1.07813,-0.96875 l 1.03125,0.79688 q -1.23438,1.90625 -3.71875,1.90625 z m -0.20313,-8.84375 q -1.01562,0 -1.71875,0.75 -0.6875,0.73437 -0.84375,2.07812 h 4.9375 v -0.125 q -0.0781,-1.28125 -0.70312,-1.98437 -0.60938,-0.71875 -1.67188,-0.71875 z"
         fill-rule="nonzero"
         id="path55" />
      <path
         fill="#000000"
         d="m 479.8292,585.2855 q 0,-2.26563 1.07813,-3.64063 1.07812,-1.375 2.8125,-1.375 1.73437,0 2.75,1.17188 v -5.14063 h 1.6875 v 14 h -1.54688 l -0.0937,-1.0625 q -1,1.25 -2.8125,1.25 -1.70312,0 -2.79687,-1.40625 -1.07813,-1.40625 -1.07813,-3.65625 z m 1.6875,0.20312 q 0,1.67188 0.6875,2.625 0.70313,0.9375 1.92188,0.9375 1.60937,0 2.34375,-1.4375 v -4.53125 q -0.76563,-1.39062 -2.32813,-1.39062 -1.23437,0 -1.9375,0.95312 -0.6875,0.95313 -0.6875,2.84375 z m 15.33395,4.8125 q -0.14062,-0.29687 -0.23437,-1.03125 -1.17188,1.21875 -2.8125,1.21875 -1.45313,0 -2.39063,-0.82812 -0.92187,-0.82813 -0.92187,-2.09375 0,-1.53125 1.15625,-2.375 1.17187,-0.85938 3.29687,-0.85938 h 1.64063 v -0.78125 q 0,-0.89062 -0.53125,-1.40625 -0.51563,-0.53125 -1.54688,-0.53125 -0.90625,0 -1.51562,0.46875 -0.60938,0.45313 -0.60938,1.09375 h -1.70312 q 0,-0.73437 0.51562,-1.42187 0.53125,-0.6875 1.42188,-1.07813 0.90625,-0.40625 1.98437,-0.40625 1.70313,0 2.67188,0.85938 0.96875,0.84375 1,2.32812 v 4.53125 q 0,1.35938 0.34375,2.17188 v 0.14062 z m -2.79687,-1.28125 q 0.79687,0 1.5,-0.40625 0.71875,-0.42187 1.03125,-1.07812 v -2.01563 h -1.3125 q -3.10938,0 -3.10938,1.8125 0,0.79688 0.53125,1.25 0.53125,0.4375 1.35938,0.4375 z m 9.14798,-10.96875 v 2.39063 h 1.84375 v 1.3125 h -1.84375 v 6.10937 q 0,0.59375 0.23437,0.89063 0.25,0.29687 0.84375,0.29687 0.29688,0 0.8125,-0.10937 v 1.35937 q -0.67187,0.1875 -1.29687,0.1875 -1.125,0 -1.70313,-0.6875 -0.57812,-0.6875 -0.57812,-1.9375 v -6.10937 h -1.79688 v -1.3125 h 1.79688 v -2.39063 z m 9.89114,12.25 q -0.14062,-0.29687 -0.23437,-1.03125 -1.17188,1.21875 -2.8125,1.21875 -1.45313,0 -2.39063,-0.82812 -0.92187,-0.82813 -0.92187,-2.09375 0,-1.53125 1.15625,-2.375 1.17187,-0.85938 3.29687,-0.85938 h 1.64063 v -0.78125 q 0,-0.89062 -0.53125,-1.40625 -0.51563,-0.53125 -1.54688,-0.53125 -0.90625,0 -1.51562,0.46875 -0.60938,0.45313 -0.60938,1.09375 h -1.70312 q 0,-0.73437 0.51562,-1.42187 0.53125,-0.6875 1.42188,-1.07813 0.90625,-0.40625 1.98437,-0.40625 1.70313,0 2.67188,0.85938 0.96875,0.84375 1,2.32812 v 4.53125 q 0,1.35938 0.34375,2.17188 v 0.14062 z m -2.79687,-1.28125 q 0.79687,0 1.5,-0.40625 0.71875,-0.42187 1.03125,-1.07812 v -2.01563 h -1.3125 q -3.10938,0 -3.10938,1.8125 0,0.79688 0.53125,1.25 0.53125,0.4375 1.35938,0.4375 z m 12.31335,1.28125 v -8.54687 h -1.5625 v -1.3125 h 1.5625 v -1.01563 q 0,-1.57812 0.84375,-2.4375 0.84375,-0.875 2.39063,-0.875 0.59375,0 1.15625,0.15625 l -0.0937,1.375 q -0.42188,-0.0937 -0.90625,-0.0937 -0.8125,0 -1.26563,0.48438 -0.4375,0.48437 -0.4375,1.375 v 1.03125 h 2.09375 v 1.3125 h -2.09375 v 8.54687 z m 10.41437,-8.34375 q -0.39062,-0.0625 -0.84375,-0.0625 -1.65625,0 -2.25,1.40625 v 7 h -1.67187 v -9.85937 h 1.64062 l 0.0156,1.14062 q 0.82812,-1.3125 2.35937,-1.3125 0.48438,0 0.75,0.125 z m 0.9118,3.32813 q 0,-1.45313 0.5625,-2.60938 0.57813,-1.15625 1.59375,-1.78125 1.01563,-0.625 2.3125,-0.625 2.01563,0 3.25,1.39063 1.25,1.39062 1.25,3.70312 v 0.125 q 0,1.4375 -0.54687,2.57813 -0.54688,1.14062 -1.57813,1.78125 -1.01562,0.64062 -2.35937,0.64062 -2,0 -3.25,-1.39062 -1.23438,-1.40625 -1.23438,-3.70313 z m 1.6875,0.20312 q 0,1.64063 0.76563,2.64063 0.76562,0.98437 2.03125,0.98437 1.29687,0 2.04687,-1 0.75,-1.01562 0.75,-2.82812 0,-1.625 -0.76562,-2.625 -0.76563,-1.01563 -2.04688,-1.01563 -1.25,0 -2.01562,1 -0.76563,0.98438 -0.76563,2.84375 z m 10.98365,-5.04687 0.0469,1.09375 q 1.07813,-1.26563 2.92188,-1.26563 2.0625,0 2.8125,1.57813 0.5,-0.71875 1.28125,-1.14063 0.79687,-0.4375 1.85937,-0.4375 3.25,0 3.29688,3.42188 v 6.60937 h -1.67188 v -6.5 q 0,-1.0625 -0.48437,-1.57812 -0.48438,-0.53125 -1.625,-0.53125 -0.9375,0 -1.5625,0.5625 -0.60938,0.5625 -0.71875,1.5 v 6.54687 h -1.6875 V 583.848 q 0,-2.15625 -2.10938,-2.15625 -1.65625,0 -2.26562,1.40625 v 7.20312 h -1.6875 v -9.85937 z"
         fill-rule="nonzero"
         id="path57" />
      <path
         fill="#000000"
         d="m 481.8292,602.4418 0.0469,1.09375 q 1.07812,-1.26563 2.92187,-1.26563 2.0625,0 2.8125,1.57813 0.5,-0.71875 1.28125,-1.14063 0.79688,-0.4375 1.85938,-0.4375 3.25,0 3.29687,3.42188 v 6.60937 h -1.67187 v -6.5 q 0,-1.0625 -0.48438,-1.57812 -0.48437,-0.53125 -1.625,-0.53125 -0.9375,0 -1.5625,0.5625 -0.60937,0.5625 -0.71875,1.5 v 6.54687 h -1.6875 v -6.45312 q 0,-2.15625 -2.10937,-2.15625 -1.65625,0 -2.26563,1.40625 v 7.20312 h -1.6875 v -9.85937 z m 20.85153,8.89062 q -0.98437,1.15625 -2.89062,1.15625 -1.57813,0 -2.40625,-0.92187 -0.8125,-0.92188 -0.82813,-2.70313 v -6.42187 h 1.6875 v 6.375 q 0,2.23437 1.82813,2.23437 1.92187,0 2.5625,-1.4375 v -7.17187 h 1.6875 v 9.85937 h -1.60938 z m 6.03464,0.96875 h -1.6875 v -14 h 1.6875 z m 4.98056,-12.25 v 2.39063 h 1.84375 v 1.3125 h -1.84375 v 6.10937 q 0,0.59375 0.23437,0.89063 0.25,0.29687 0.84375,0.29687 0.29688,0 0.8125,-0.10937 v 1.35937 q -0.67187,0.1875 -1.29687,0.1875 -1.125,0 -1.70313,-0.6875 -0.57812,-0.6875 -0.57812,-1.9375 v -6.10937 h -1.79691 v -1.3125 h 1.79691 v -2.39063 z m 5.64111,12.25 h -1.6875 v -9.85937 h 1.6875 z m -1.82812,-12.46875 q 0,-0.40625 0.25,-0.6875 0.25,-0.29687 0.73437,-0.29687 0.5,0 0.75,0.29687 0.26563,0.28125 0.26563,0.6875 0,0.40625 -0.26563,0.6875 -0.25,0.26563 -0.75,0.26563 -0.48437,0 -0.73437,-0.26563 -0.25,-0.28125 -0.25,-0.6875 z m 12.8399,7.65625 q 0,2.25 -1.03125,3.625 -1.01562,1.375 -2.78125,1.375 -1.79687,0 -2.82812,-1.14062 v 4.75 h -1.67188 V 602.4418 h 1.53125 l 0.0781,1.09375 q 1.03125,-1.26563 2.85937,-1.26563 1.78125,0 2.8125,1.34375 1.03125,1.32813 1.03125,3.71875 z m -1.67187,-0.20312 q 0,-1.65625 -0.71875,-2.625 -0.70313,-0.96875 -1.95313,-0.96875 -1.53125,0 -2.29687,1.35937 v 4.70313 q 0.76562,1.35937 2.32812,1.35937 1.20313,0 1.92188,-0.95312 0.71875,-0.96875 0.71875,-2.875 z m 5.6543,5.01562 h -1.6875 v -14 h 1.6875 z m 6.77746,0.1875 q -2,0 -3.26562,-1.3125 -1.25,-1.32812 -1.25,-3.53125 v -0.3125 q 0,-1.46875 0.5625,-2.60937 0.5625,-1.15625 1.5625,-1.79688 1.01562,-0.65625 2.1875,-0.65625 1.92187,0 2.98437,1.26563 1.0625,1.26562 1.0625,3.625 v 0.6875 h -6.67187 q 0.0312,1.46875 0.84375,2.375 0.82812,0.89062 2.07812,0.89062 0.89063,0 1.51563,-0.35937 0.625,-0.375 1.07812,-0.96875 l 1.03125,0.79687 q -1.23437,1.90625 -3.71875,1.90625 z m -0.20312,-8.84375 q -1.01563,0 -1.71875,0.75 -0.6875,0.73438 -0.84375,2.07813 h 4.9375 v -0.125 q -0.0781,-1.28125 -0.70313,-1.98438 -0.60937,-0.71875 -1.67187,-0.71875 z"
         fill-rule="nonzero"
         id="path59" />
      <path
         fill="#000000"
         d="m 485.0167,625.9574 q -0.39062,-0.0625 -0.84375,-0.0625 -1.65625,0 -2.25,1.40625 v 7 h -1.67187 v -9.85938 h 1.64062 l 0.0156,1.14063 q 0.82812,-1.3125 2.35937,-1.3125 0.48438,0 0.75,0.125 z m 7.62537,7.375 q -0.98438,1.15625 -2.89063,1.15625 -1.57812,0 -2.40625,-0.92188 -0.8125,-0.92187 -0.82812,-2.70312 v -6.42188 h 1.6875 v 6.375 q 0,2.23438 1.82812,2.23438 1.92188,0 2.5625,-1.4375 v -7.17188 h 1.6875 v 9.85938 h -1.60937 z m 5.80026,-8.89063 0.0469,1.23438 q 1.125,-1.40625 2.95313,-1.40625 3.125,0 3.15625,3.51562 v 6.51563 h -1.6875 v -6.51563 q -0.0156,-1.07812 -0.5,-1.57812 -0.46875,-0.51563 -1.48438,-0.51563 -0.8125,0 -1.4375,0.4375 -0.60937,0.4375 -0.96875,1.15625 v 7.01563 h -1.67187 v -9.85938 z m 14.43432,7.25 q 0,-0.6875 -0.51562,-1.0625 -0.5156,-0.375 -1.79685,-0.64062 -1.28125,-0.28125 -2.03125,-0.65625 -0.75,-0.39063 -1.10937,-0.92188 -0.35938,-0.53125 -0.35938,-1.26562 0,-1.20313 1.01563,-2.03125 1.03125,-0.84375 2.625,-0.84375 1.67184,0 2.71872,0.85937 1.04687,0.85938 1.04687,2.21875 h -1.6875 q 0,-0.70312 -0.59375,-1.20312 -0.59372,-0.5 -1.48434,-0.5 -0.92188,0 -1.4375,0.40625 -0.51563,0.39062 -0.51563,1.04687 0,0.60938 0.48438,0.92188 0.48437,0.3125 1.73437,0.59375 1.2656,0.28125 2.04685,0.67187 0.78125,0.39063 1.15625,0.9375 0.39062,0.54688 0.39062,1.34375 0,1.32813 -1.0625,2.125 -1.04687,0.79688 -2.73434,0.79688 -1.1875,0 -2.10938,-0.42188 -0.90625,-0.42187 -1.42187,-1.17187 -0.51563,-0.75 -0.51563,-1.625 h 1.6875 q 0.0469,0.84375 0.67188,1.34375 0.64062,0.5 1.6875,0.5 0.95312,0 1.53122,-0.39063 0.57812,-0.39062 0.57812,-1.03125 z"
         fill-rule="nonzero"
         id="path61" />
      <path
         fill="#000000"
         fill-opacity="0"
         d="M 269.7874,209.20473 H 444.37007"
         fill-rule="evenodd"
         id="path63" />
      <path
         stroke="#6aa84f"
         stroke-width="3"
         stroke-linejoin="round"
         stroke-linecap="butt"
         stroke-dasharray="3, 9"
         d="M 269.7874,209.20473 H 426.37007"
         fill-rule="evenodd"
         id="path65" />
      <path
         fill="#6aa84f"
         stroke="#6aa84f"
         stroke-width="3"
         stroke-linecap="butt"
         d="m 426.3701,214.15993 13.61429,-4.9552 -13.61429,-4.9552 z"
         fill-rule="evenodd"
         id="path67" />
      <path
         fill="#000000"
         fill-opacity="0"
         d="m 269.77692,178.15486 h 174.58267 v 68.22047 H 269.77692 Z"
         fill-rule="evenodd"
         id="path69" />
      <path
         fill="#000000"
         d="m 336.49042,193.2296 h -4.25 v 11.78125 h -1.73438 V 193.2296 h -4.25 v -1.4375 h 10.23438 z m 6.88797,10.8125 q -0.96875,1.15625 -2.875,1.15625 -1.5625,0 -2.39063,-0.90625 -0.8125,-0.92188 -0.82812,-2.71875 v -6.39063 h 1.6875 v 6.34375 q 0,2.23438 1.8125,2.23438 1.92187,0 2.5625,-1.42188 v -7.15625 h 1.67187 v 9.82813 h -1.59375 z m 8.93765,-7.34375 q -0.375,-0.0625 -0.82812,-0.0625 -1.64063,0 -2.23438,1.40625 v 6.96875 h -1.6875 v -9.82813 h 1.64063 l 0.0312,1.14063 q 0.82812,-1.3125 2.34375,-1.3125 0.48437,0 0.73437,0.125 z m 3.1355,-1.51563 0.0625,1.23438 q 1.125,-1.40625 2.9375,-1.40625 3.10938,0 3.14063,3.51562 v 6.48438 h -1.6875 v -6.5 q 0,-1.0625 -0.48438,-1.5625 -0.46875,-0.51563 -1.48437,-0.51563 -0.8125,0 -1.4375,0.4375 -0.60938,0.4375 -0.95313,1.14063 v 7 h -1.6875 v -9.82813 z m 12.83102,4.82813 q 0,-1.45313 0.5625,-2.59375 0.57813,-1.15625 1.57813,-1.78125 1.01562,-0.625 2.3125,-0.625 2.01562,0 3.25,1.39062 1.23437,1.375 1.23437,3.6875 v 0.125 q 0,1.42188 -0.54687,2.5625 -0.54688,1.14063 -1.57813,1.78125 -1.01562,0.64063 -2.34375,0.64063 -1.98437,0 -3.23437,-1.39063 -1.23438,-1.39062 -1.23438,-3.6875 z m 1.6875,0.20312 q 0,1.625 0.75,2.625 0.76563,0.98438 2.03125,0.98438 1.28125,0 2.03125,-1 0.76563,-1.01563 0.76563,-2.8125 0,-1.625 -0.76563,-2.625 -0.76562,-1 -2.04687,-1 -1.23438,0 -2,1 -0.76563,0.98437 -0.76563,2.82812 z m 10.948,-5.03125 0.0625,1.23438 q 1.125,-1.40625 2.9375,-1.40625 3.10938,0 3.14063,3.51562 v 6.48438 h -1.6875 v -6.5 q 0,-1.0625 -0.48438,-1.5625 -0.46875,-0.51563 -1.48437,-0.51563 -0.8125,0 -1.4375,0.4375 -0.60938,0.4375 -0.95313,1.14063 v 7 h -1.6875 v -9.82813 z"
         fill-rule="nonzero"
         id="path71" />
      <path
         fill="#000000"
         d="m 294.69275,227.33086 h -1.75 v -13.21875 h 1.75 z m 4.5101,-9.82813 0.0625,1.23438 q 1.125,-1.40625 2.9375,-1.40625 3.10938,0 3.14063,3.51562 v 6.48438 h -1.6875 v -6.5 q 0,-1.0625 -0.48438,-1.5625 -0.46875,-0.51563 -1.48437,-0.51563 -0.8125,0 -1.4375,0.4375 -0.60938,0.4375 -0.95313,1.14063 v 7 h -1.6875 v -9.82813 z m 14.38425,7.21875 q 0,-0.67187 -0.51563,-1.04687 -0.5,-0.39063 -1.78125,-0.65625 -1.28125,-0.26563 -2.03125,-0.64063 -0.73437,-0.39062 -1.09375,-0.92187 -0.35937,-0.53125 -0.35937,-1.25 0,-1.20313 1.01562,-2.03125 1.01563,-0.84375 2.60938,-0.84375 1.67187,0 2.70312,0.85937 1.04688,0.85938 1.04688,2.20313 h -1.6875 q 0,-0.6875 -0.59375,-1.1875 -0.57813,-0.5 -1.46875,-0.5 -0.92188,0 -1.4375,0.40625 -0.51563,0.39062 -0.51563,1.03125 0,0.60937 0.48438,0.92187 0.48437,0.3125 1.73437,0.59375 1.26563,0.28125 2.04688,0.67188 0.78125,0.39062 1.15625,0.9375 0.375,0.54687 0.375,1.34375 0,1.3125 -1.0625,2.10937 -1.04688,0.79688 -2.71875,0.79688 -1.1875,0 -2.09375,-0.42188 -0.90625,-0.42187 -1.42188,-1.17187 -0.51562,-0.75 -0.51562,-1.60938 h 1.6875 q 0.0469,0.84375 0.67187,1.34375 0.625,0.48438 1.67188,0.48438 0.95312,0 1.51562,-0.39063 0.57813,-0.39062 0.57813,-1.03125 z m 6.1499,-9.59375 v 2.375 h 1.84375 v 1.29688 H 319.737 v 6.09375 q 0,0.59375 0.25,0.89062 0.25,0.29688 0.82813,0.29688 0.29687,0 0.79687,-0.10938 v 1.35938 q -0.65625,0.1875 -1.28125,0.1875 -1.125,0 -1.70312,-0.6875 -0.5625,-0.6875 -0.5625,-1.9375 v -6.09375 h -1.79688 v -1.29688 h 1.79688 v -2.375 z m 8.5426,3.89063 q -0.375,-0.0625 -0.82812,-0.0625 -1.64063,0 -2.23438,1.40625 v 6.96875 h -1.6875 v -9.82813 h 1.64063 l 0.0312,1.14063 q 0.82812,-1.3125 2.34375,-1.3125 0.48437,0 0.73437,0.125 z m 7.60422,7.34375 q -0.96875,1.15625 -2.875,1.15625 -1.5625,0 -2.39062,-0.90625 -0.8125,-0.92188 -0.82813,-2.71875 v -6.39063 h 1.6875 v 6.34375 q 0,2.23438 1.8125,2.23438 1.92188,0 2.5625,-1.42188 v -7.15625 h 1.67188 v 9.82813 h -1.59375 z m 5.76581,-8.85938 0.0469,1.09375 q 1.09375,-1.26562 2.92188,-1.26562 2.0625,0 2.79687,1.57812 0.5,-0.71875 1.28125,-1.14062 0.78125,-0.4375 1.85938,-0.4375 3.23437,0 3.28125,3.42187 v 6.57813 h -1.67188 v -6.48438 q 0,-1.04687 -0.48437,-1.5625 -0.48438,-0.53125 -1.60938,-0.53125 -0.9375,0 -1.5625,0.5625 -0.60937,0.54688 -0.71875,1.5 v 6.51563 h -1.6875 v -6.4375 q 0,-2.14063 -2.09375,-2.14063 -1.65625,0 -2.26562,1.40625 v 7.17188 h -1.67188 v -9.82813 z m 18.79675,10.01563 q -2,0 -3.25,-1.3125 -1.25,-1.3125 -1.25,-3.51563 v -0.3125 q 0,-1.45312 0.5625,-2.59375 0.5625,-1.15625 1.5625,-1.79687 1,-0.65625 2.17188,-0.65625 1.90625,0 2.96875,1.26562 1.0625,1.25 1.0625,3.60938 v 0.6875 h -6.64063 q 0.0312,1.45312 0.84375,2.35937 0.8125,0.89063 2.0625,0.89063 0.89063,0 1.5,-0.35938 0.625,-0.375 1.09375,-0.96875 l 1.01563,0.79688 q -1.23438,1.90625 -3.70313,1.90625 z m -0.20312,-8.8125 q -1.01563,0 -1.71875,0.75 -0.6875,0.73437 -0.84375,2.0625 h 4.92187 v -0.125 q -0.0781,-1.28125 -0.70312,-1.98438 -0.60938,-0.70312 -1.65625,-0.70312 z m 7.56946,-1.20313 0.0625,1.23438 q 1.125,-1.40625 2.9375,-1.40625 3.10937,0 3.14062,3.51562 v 6.48438 h -1.6875 v -6.5 q 0,-1.0625 -0.48437,-1.5625 -0.46875,-0.51563 -1.48438,-0.51563 -0.8125,0 -1.4375,0.4375 -0.60937,0.4375 -0.95312,1.14063 v 7 h -1.6875 v -9.82813 z m 10.94674,-2.375 v 2.375 h 1.84375 v 1.29688 h -1.84375 v 6.09375 q 0,0.59375 0.25,0.89062 0.25,0.29688 0.82813,0.29688 0.29687,0 0.79687,-0.10938 v 1.35938 q -0.65625,0.1875 -1.28125,0.1875 -1.125,0 -1.70312,-0.6875 -0.5625,-0.6875 -0.5625,-1.9375 v -6.09375 h -1.79688 v -1.29688 h 1.79688 v -2.375 z m 9.85507,12.20313 q -0.14062,-0.29688 -0.23437,-1.03125 -1.17188,1.21875 -2.79688,1.21875 -1.45312,0 -2.39062,-0.82813 -0.92188,-0.82812 -0.92188,-2.07812 0,-1.54688 1.17188,-2.39063 1.17187,-0.84375 3.28125,-0.84375 h 1.64062 v -0.78125 q 0,-0.875 -0.53125,-1.39062 -0.53125,-0.53125 -1.54687,-0.53125 -0.90625,0 -1.51563,0.45312 -0.60937,0.45313 -0.60937,1.10938 h -1.6875 q 0,-0.73438 0.51562,-1.42188 0.53125,-0.6875 1.42188,-1.07812 0.89062,-0.40625 1.96875,-0.40625 1.70312,0 2.65625,0.84375 0.96875,0.84375 1,2.34375 v 4.51562 q 0,1.35938 0.34375,2.15625 v 0.14063 z m -2.78125,-1.28125 q 0.79688,0 1.5,-0.40625 0.70313,-0.40625 1.03125,-1.0625 v -2.01563 h -1.32812 q -3.07813,0 -3.07813,1.8125 0,0.78125 0.51563,1.23438 0.53125,0.4375 1.35937,0.4375 z m 9.11399,-10.92188 v 2.375 h 1.84375 v 1.29688 h -1.84375 v 6.09375 q 0,0.59375 0.25,0.89062 0.25,0.29688 0.82812,0.29688 0.29688,0 0.79688,-0.10938 v 1.35938 q -0.65625,0.1875 -1.28125,0.1875 -1.125,0 -1.70313,-0.6875 -0.5625,-0.6875 -0.5625,-1.9375 v -6.09375 h -1.79687 v -1.29688 h 1.79687 v -2.375 z m 5.62072,12.20313 h -1.67187 v -9.82813 h 1.67187 z m -1.8125,-12.42188 q 0,-0.42187 0.25,-0.70312 0.25,-0.28125 0.73438,-0.28125 0.5,0 0.75,0.28125 0.25,0.28125 0.25,0.70312 0,0.40625 -0.25,0.6875 -0.25,0.26563 -0.75,0.26563 -0.48438,0 -0.73438,-0.26563 -0.25,-0.28125 -0.25,-0.6875 z m 4.05915,7.42188 q 0,-1.45313 0.5625,-2.59375 0.57812,-1.15625 1.57812,-1.78125 1.01563,-0.625 2.3125,-0.625 2.01563,0 3.25,1.39062 1.23438,1.375 1.23438,3.6875 v 0.125 q 0,1.42188 -0.54688,2.5625 -0.54687,1.14063 -1.57812,1.78125 -1.01563,0.64063 -2.34375,0.64063 -1.98438,0 -3.23438,-1.39063 -1.23437,-1.39062 -1.23437,-3.6875 z m 1.6875,0.20312 q 0,1.625 0.75,2.625 0.76562,0.98438 2.03125,0.98438 1.28125,0 2.03125,-1 0.76562,-1.01563 0.76562,-2.8125 0,-1.625 -0.76562,-2.625 -0.76563,-1 -2.04688,-1 -1.23437,0 -2,1 -0.76562,0.98437 -0.76562,2.82812 z m 10.948,-5.03125 0.0625,1.23438 q 1.125,-1.40625 2.9375,-1.40625 3.10937,0 3.14062,3.51562 v 6.48438 h -1.6875 v -6.5 q 0,-1.0625 -0.48437,-1.5625 -0.46875,-0.51563 -1.48438,-0.51563 -0.8125,0 -1.4375,0.4375 -0.60937,0.4375 -0.95312,1.14063 v 7 h -1.6875 v -9.82813 z"
         fill-rule="nonzero"
         id="path73" />
      <path
         fill="#000000"
         fill-opacity="0"
         d="m 537.01575,305.40945 v 41.22833"
         fill-rule="evenodd"
         id="path75" />
      <path
         stroke="#6aa84f"
         stroke-width="3"
         stroke-linejoin="round"
         stroke-linecap="butt"
         d="m 537.01575,305.40945 v 23.22833"
         fill-rule="evenodd"
         id="path77" />
      <path
         fill="#6aa84f"
         stroke="#6aa84f"
         stroke-width="3"
         stroke-linecap="butt"
         d="m 532.06055,328.6378 4.9552,13.61429 4.9552,-13.61429 z"
         fill-rule="evenodd"
         id="path79" />
      <path
         fill="#000000"
         fill-opacity="0"
         d="m 588.06116,585.3595 120.47241,1.03937"
         fill-rule="evenodd"
         id="path81" />
      <path
         stroke="#6aa84f"
         stroke-width="3"
         stroke-linejoin="round"
         stroke-linecap="butt"
         d="m 588.06116,585.35944 102.47315,0.88409"
         fill-rule="evenodd"
         id="path83" />
      <path
         fill="#6aa84f"
         stroke="#6aa84f"
         stroke-width="3"
         stroke-linecap="butt"
         d="m 690.4916,591.19855 13.65649,-4.83759 -13.57104,-5.07244 z"
         fill-rule="evenodd"
         id="path85" />
      <path
         fill="#000000"
         fill-opacity="0"
         d="m 537.0155,467.37994 0.12598,49.76379"
         fill-rule="evenodd"
         id="path87" />
      <path
         stroke="#6aa84f"
         stroke-width="3"
         stroke-linejoin="round"
         stroke-linecap="butt"
         d="m 537.0155,467.37997 0.0804,31.76379"
         fill-rule="evenodd"
         id="path89" />
      <path
         fill="#6aa84f"
         stroke="#6aa84f"
         stroke-width="3"
         stroke-linecap="butt"
         d="m 532.14075,499.15634 4.98962,13.60172 4.92072,-13.62681 z"
         fill-rule="evenodd"
         id="path91" />
      <path
         fill="#000000"
         fill-opacity="0"
         d="m 177.14174,305.40945 v 391.93698 h 531.4016"
         fill-rule="evenodd"
         id="path93" />
      <path
         stroke="#6aa84f"
         stroke-width="3"
         stroke-linejoin="round"
         stroke-linecap="butt"
         stroke-dasharray="3, 9"
         d="m 177.14174,305.40945 v 391.93698 h 513.4016"
         fill-rule="evenodd"
         id="path95" />
      <path
         fill="#6aa84f"
         stroke="#6aa84f"
         stroke-width="3"
         stroke-linecap="butt"
         d="m 690.54333,702.30164 13.61426,-4.9552 -13.61426,-4.9552 z"
         fill-rule="evenodd"
         id="path97" />
      <path
         fill="#000000"
         fill-opacity="0"
         d="m 490.60892,661.70605 h 174.58267 v 68.22046 H 490.60892 Z"
         fill-rule="evenodd"
         id="path99" />
      <path
         fill="#000000"
         d="m 513.2689,682.00165 q 0,1.875 -0.64062,3.28125 -0.625,1.40625 -1.78125,2.14063 -1.15625,0.73437 -2.70313,0.73437 -1.51562,0 -2.6875,-0.73437 -1.17187,-0.75 -1.8125,-2.125 -0.64062,-1.375 -0.67187,-3.1875 v -0.92188 q 0,-1.84375 0.64062,-3.25 0.65625,-1.42187 1.82813,-2.17187 1.17187,-0.75 2.67187,-0.75 1.54688,0 2.71875,0.75 1.17188,0.73437 1.79688,2.14062 0.64062,1.40625 0.64062,3.28125 z m -1.67187,-0.82812 q 0,-2.28125 -0.92188,-3.48438 -0.90625,-1.21875 -2.5625,-1.21875 -1.59375,0 -2.51562,1.21875 -0.90625,1.20313 -0.9375,3.375 v 0.9375 q 0,2.20313 0.92187,3.46875 0.9375,1.26563 2.5625,1.26563 1.625,0 2.51563,-1.1875 0.90625,-1.20313 0.9375,-3.42188 z m 11.98437,2.15625 q 0,2.17187 -1,3.5 -0.98437,1.32812 -2.6875,1.32812 -1.73437,0 -2.71875,-1.09375 v 4.57813 h -1.625 V 678.4704 h 1.48438 l 0.0781,1.0625 q 0.98438,-1.23437 2.76563,-1.23437 1.70312,0 2.70312,1.29687 1,1.28125 1,3.59375 z m -1.625,-0.17188 q 0,-1.60937 -0.6875,-2.54687 -0.6875,-0.9375 -1.875,-0.9375 -1.48437,0 -2.21875,1.3125 v 4.54687 q 0.73438,1.29688 2.23438,1.29688 1.17187,0 1.85937,-0.92188 0.6875,-0.92187 0.6875,-2.75 z m 5.89551,-6.98437 v 2.29687 h 1.78125 v 1.26563 h -1.78125 v 5.89062 q 0,0.57813 0.23437,0.85938 0.23438,0.28125 0.8125,0.28125 0.28125,0 0.76563,-0.0937 v 1.3125 q -0.64063,0.17187 -1.23438,0.17187 -1.09375,0 -1.65625,-0.65625 -0.54687,-0.65625 -0.54687,-1.875 v -5.89062 h -1.73438 v -1.26563 h 1.73438 v -2.29687 z m 5.44238,11.8125 h -1.625 v -9.51563 h 1.625 z m -1.76562,-12.03125 q 0,-0.39063 0.23437,-0.65625 0.25,-0.28125 0.71875,-0.28125 0.48438,0 0.73438,0.28125 0.25,0.26562 0.25,0.65625 0,0.39062 -0.25,0.65625 -0.25,0.26562 -0.73438,0.26562 -0.46875,0 -0.71875,-0.26562 -0.23437,-0.26563 -0.23437,-0.65625 z m 5.89941,2.51562 0.0312,1.0625 q 1.04687,-1.23437 2.82812,-1.23437 2,0 2.71875,1.53125 0.46875,-0.6875 1.23438,-1.10938 0.76562,-0.42187 1.79687,-0.42187 3.125,0 3.1875,3.3125 v 6.375 h -1.64062 v -6.28125 q 0,-1.01563 -0.46875,-1.51563 -0.45313,-0.51562 -1.54688,-0.51562 -0.90625,0 -1.51562,0.54687 -0.59375,0.54688 -0.6875,1.45313 v 6.3125 h -1.64063 v -6.23438 q 0,-2.07812 -2.03125,-2.07812 -1.59375,0 -2.1875,1.375 v 6.9375 h -1.625 v -9.51563 z m 16.01074,9.51563 h -1.625 v -9.51563 h 1.625 z m -1.76562,-12.03125 q 0,-0.39063 0.23437,-0.65625 0.25,-0.28125 0.71875,-0.28125 0.48438,0 0.73438,0.28125 0.25,0.26562 0.25,0.65625 0,0.39062 -0.25,0.65625 -0.25,0.26562 -0.73438,0.26562 -0.46875,0 -0.71875,-0.26562 -0.23437,-0.26563 -0.23437,-0.65625 z m 5.89941,10.70312 h 5.5625 v 1.32813 h -7.54687 v -1.20313 l 5.23437,-6.96875 h -5.15625 v -1.34375 h 7.20313 v 1.15625 z m 11.18652,1.5 q -1.92187,0 -3.14062,-1.26562 -1.21875,-1.26563 -1.21875,-3.39063 v -0.3125 q 0,-1.40625 0.54687,-2.51562 0.54688,-1.10938 1.51563,-1.73438 0.96875,-0.64062 2.09375,-0.64062 1.85937,0 2.89062,1.21875 1.03125,1.21875 1.03125,3.5 v 0.67187 h -6.45312 q 0.0469,1.40625 0.82812,2.28125 0.78125,0.85938 2,0.85938 0.85938,0 1.45313,-0.34375 0.60937,-0.35938 1.04687,-0.9375 l 1,0.78125 q -1.20312,1.82812 -3.59375,1.82812 z m -0.20312,-8.51562 q -0.98438,0 -1.65625,0.71875 -0.65625,0.70312 -0.8125,2 h 4.76562 v -0.125 q -0.0781,-1.23438 -0.67187,-1.90625 -0.59375,-0.6875 -1.625,-0.6875 z m 5.73926,10.89062 -0.92188,-0.625 q 0.82813,-1.15625 0.85938,-2.375 v -1.46875 h 1.59375 v 1.26563 q 0,0.89062 -0.4375,1.78125 -0.42188,0.89062 -1.09375,1.42187 z m 7.66113,-7.375 q 0,-2.23437 1.03125,-3.54687 1.03125,-1.3125 2.71875,-1.3125 1.75,0 2.71875,1.23437 l 0.0781,-1.0625 h 1.48438 v 9.28125 q 0,1.85938 -1.09375,2.92188 -1.09375,1.0625 -2.9375,1.0625 -1.03125,0 -2.01563,-0.45313 -0.98437,-0.4375 -1.5,-1.20312 l 0.84375,-0.96875 q 1.04688,1.29687 2.5625,1.29687 1.1875,0 1.84375,-0.67187 0.67188,-0.67188 0.67188,-1.875 v -0.82813 q -0.98438,1.125 -2.67188,1.125 -1.67187,0 -2.70312,-1.34375 -1.03125,-1.34375 -1.03125,-3.65625 z m 1.64062,0.17188 q 0,1.60937 0.65625,2.53125 0.65625,0.92187 1.84375,0.92187 1.53125,0 2.26563,-1.40625 v -4.32812 q -0.75,-1.375 -2.25,-1.375 -1.1875,0 -1.85938,0.9375 -0.65625,0.92187 -0.65625,2.71875 z m 14.72364,3.71875 q -0.95313,1.10937 -2.79688,1.10937 -1.51562,0 -2.3125,-0.875 -0.79687,-0.89062 -0.79687,-2.625 v -6.1875 h 1.625 v 6.15625 q 0,2.15625 1.75,2.15625 1.85937,0 2.48437,-1.39062 v -6.92188 h 1.625 v 9.51563 h -1.54687 z m 5.81347,0.9375 h -1.625 v -9.51563 h 1.625 z m -1.76562,-12.03125 q 0,-0.39063 0.23437,-0.65625 0.25,-0.28125 0.71875,-0.28125 0.48438,0 0.73438,0.28125 0.25,0.26562 0.25,0.65625 0,0.39062 -0.25,0.65625 -0.25,0.26562 -0.73438,0.26562 -0.46875,0 -0.71875,-0.26562 -0.23437,-0.26563 -0.23437,-0.65625 z m 3.96191,7.20312 q 0,-2.1875 1.03125,-3.51562 1.04688,-1.34375 2.73438,-1.34375 1.67187,0 2.64062,1.14062 v -4.95312 h 1.625 v 13.5 h -1.5 l -0.0781,-1.01563 q -0.96875,1.1875 -2.70313,1.1875 -1.65625,0 -2.70312,-1.34375 -1.04688,-1.35937 -1.04688,-3.54687 z m 1.64063,0.17188 q 0,1.625 0.65625,2.54687 0.67187,0.90625 1.84375,0.90625 1.54687,0 2.26562,-1.39062 v -4.375 q -0.73437,-1.34375 -2.23437,-1.34375 -1.20313,0 -1.875,0.9375 -0.65625,0.92187 -0.65625,2.71875 z m 12.85449,4.82812 q -1.92187,0 -3.14062,-1.26562 -1.21875,-1.26563 -1.21875,-3.39063 v -0.3125 q 0,-1.40625 0.54687,-2.51562 0.54688,-1.10938 1.51563,-1.73438 0.96875,-0.64062 2.09375,-0.64062 1.85937,0 2.89062,1.21875 1.03125,1.21875 1.03125,3.5 v 0.67187 h -6.45312 q 0.0469,1.40625 0.82812,2.28125 0.78125,0.85938 2,0.85938 0.85938,0 1.45313,-0.34375 0.60937,-0.35938 1.04687,-0.9375 l 1,0.78125 q -1.20312,1.82812 -3.59375,1.82812 z m -0.20312,-8.51562 q -0.98438,0 -1.65625,0.71875 -0.65625,0.70312 -0.8125,2 h 4.76562 v -0.125 q -0.0781,-1.23438 -0.67187,-1.90625 -0.59375,-0.6875 -1.625,-0.6875 z m 5.3955,3.51562 q 0,-2.1875 1.03125,-3.51562 1.04688,-1.34375 2.73438,-1.34375 1.67187,0 2.64062,1.14062 v -4.95312 h 1.625 v 13.5 h -1.5 l -0.0781,-1.01563 q -0.96875,1.1875 -2.70313,1.1875 -1.65625,0 -2.70312,-1.34375 -1.04688,-1.35937 -1.04688,-3.54687 z m 1.64063,0.17188 q 0,1.625 0.65625,2.54687 0.67187,0.90625 1.84375,0.90625 1.54687,0 2.26562,-1.39062 v -4.375 q -0.73437,-1.34375 -2.23437,-1.34375 -1.20313,0 -1.875,0.9375 -0.65625,0.92187 -0.65625,2.71875 z"
         fill-rule="nonzero"
         id="path101" />
      <path
         fill="#000000"
         d="m 649.0785,683.3298 q 0,2.1875 -1,3.51562 -1,1.3125 -2.6875,1.3125 -1.8125,0 -2.79688,-1.26562 l -0.0781,1.09375 h -1.48438 v -13.5 h 1.625 v 5.03125 q 0.98438,-1.21875 2.70313,-1.21875 1.73437,0 2.71875,1.3125 1,1.3125 1,3.57812 z m -1.625,-0.17188 q 0,-1.67187 -0.64063,-2.57812 -0.64062,-0.90625 -1.84375,-0.90625 -1.60937,0 -2.3125,1.5 v 4.10937 q 0.75,1.5 2.32813,1.5 1.17187,0 1.8125,-0.90625 0.65625,-0.90625 0.65625,-2.71875 z m 6.68945,2.45313 2.21875,-7.14063 h 1.73438 l -3.82813,10.98438 q -0.875,2.375 -2.8125,2.375 l -0.3125,-0.0312 -0.60937,-0.10938 v -1.32812 l 0.4375,0.0469 q 0.82812,0 1.28125,-0.34375 0.46875,-0.32812 0.76562,-1.21875 l 0.375,-0.96875 -3.40625,-9.40625 h 1.78125 z"
         fill-rule="nonzero"
         id="path103" />
      <path
         fill="#000000"
         d="m 542.056,704.9298 q 0,2.17187 -1,3.5 -0.98437,1.32812 -2.6875,1.32812 -1.73437,0 -2.71875,-1.09375 v 4.57813 h -1.625 v -13.17188 h 1.48438 l 0.0781,1.0625 q 0.98438,-1.23437 2.76563,-1.23437 1.70312,0 2.70312,1.29687 1,1.28125 1,3.59375 z m -1.625,-0.17188 q 0,-1.60937 -0.6875,-2.54687 -0.6875,-0.9375 -1.875,-0.9375 -1.48437,0 -2.21875,1.3125 v 4.54687 q 0.73438,1.29688 2.23438,1.29688 1.17187,0 1.85937,-0.92188 0.6875,-0.92187 0.6875,-2.75 z m 8.28613,-3.21875 q -0.375,-0.0625 -0.79687,-0.0625 -1.60938,0 -2.17188,1.35938 v 6.75 h -1.625 v -9.51563 h 1.57813 l 0.0312,1.10938 q 0.79687,-1.28125 2.26562,-1.28125 0.46875,0 0.71875,0.125 z m 0.88379,3.20313 q 0,-1.39063 0.54688,-2.5 0.5625,-1.125 1.53125,-1.73438 0.98437,-0.60937 2.23437,-0.60937 1.95313,0 3.14063,1.34375 1.20312,1.34375 1.20312,3.57812 v 0.10938 q 0,1.39062 -0.53125,2.5 -0.53125,1.09375 -1.51562,1.71875 -0.98438,0.60937 -2.26563,0.60937 -1.9375,0 -3.14062,-1.34375 -1.20313,-1.34375 -1.20313,-3.5625 z m 1.64063,0.1875 q 0,1.59375 0.73437,2.54687 0.73438,0.95313 1.96875,0.95313 1.23438,0 1.95313,-0.96875 0.73437,-0.96875 0.73437,-2.71875 0,-1.5625 -0.75,-2.53125 -0.73437,-0.96875 -1.96875,-0.96875 -1.20312,0 -1.9375,0.95312 -0.73437,0.95313 -0.73437,2.73438 z m 9.60937,4.65625 v -8.25 h -1.51562 v -1.26563 h 1.51562 v -0.79687 q 0,-1.59375 0.90625,-2.48438 0.90625,-0.89062 2.5625,-0.89062 0.98438,0 2.5,0.53125 l -0.28125,1.375 q -1.09375,-0.4375 -2.09375,-0.4375 -1.04687,0 -1.51562,0.46875 -0.45313,0.46875 -0.45313,1.40625 v 0.82812 h 1.95313 v 1.26563 h -1.95313 v 8.25 z m 6.76563,0 h -1.625 v -9.51563 h 1.625 z m 4.41992,0 h -1.625 v -13.5 h 1.625 z m 6.54004,0.17187 q -1.92188,0 -3.14063,-1.26562 -1.21875,-1.26563 -1.21875,-3.39063 v -0.3125 q 0,-1.40625 0.54688,-2.51562 0.54687,-1.10938 1.51562,-1.73438 0.96875,-0.64062 2.09375,-0.64062 1.85938,0 2.89063,1.21875 1.03125,1.21875 1.03125,3.5 v 0.67187 h -6.45313 q 0.0469,1.40625 0.82813,2.28125 0.78125,0.85938 2,0.85938 0.85937,0 1.45312,-0.34375 0.60938,-0.35938 1.04688,-0.9375 l 1,0.78125 q -1.20313,1.82812 -3.59375,1.82812 z m -0.20313,-8.51562 q -0.98437,0 -1.65625,0.71875 -0.65625,0.70312 -0.8125,2 h 4.76563 v -0.125 q -0.0781,-1.23438 -0.67188,-1.90625 -0.59375,-0.6875 -1.625,-0.6875 z m 9.85157,3.51562 q 0,-2.1875 1.03125,-3.51562 1.04687,-1.34375 2.73437,-1.34375 1.67188,0 2.64063,1.14062 v -4.95312 h 1.625 v 13.5 h -1.5 l -0.0781,-1.01563 q -0.96875,1.1875 -2.70312,1.1875 -1.65625,0 -2.70313,-1.34375 -1.04687,-1.35937 -1.04687,-3.54687 z m 1.64062,0.17188 q 0,1.625 0.65625,2.54687 0.67188,0.90625 1.84375,0.90625 1.54688,0 2.26563,-1.39062 v -4.375 q -0.73438,-1.34375 -2.23438,-1.34375 -1.20312,0 -1.875,0.9375 -0.65625,0.92187 -0.65625,2.71875 z m 14.79199,4.65625 q -0.14062,-0.28125 -0.23437,-1 -1.14063,1.17187 -2.70313,1.17187 -1.40625,0 -2.3125,-0.79687 -0.90625,-0.79688 -0.90625,-2.01563 0,-1.48437 1.125,-2.29687 1.14063,-0.82813 3.1875,-0.82813 h 1.57813 v -0.75 q 0,-0.84375 -0.51563,-1.34375 -0.5,-0.51562 -1.5,-0.51562 -0.85937,0 -1.45312,0.4375 -0.59375,0.4375 -0.59375,1.0625 h -1.625 q 0,-0.70313 0.5,-1.35938 0.5,-0.67187 1.35937,-1.0625 0.875,-0.39062 1.92188,-0.39062 1.64062,0 2.5625,0.82812 0.9375,0.8125 0.96875,2.26563 v 4.375 q 0,1.29687 0.34375,2.07812 v 0.14063 z m -2.70312,-1.23438 q 0.76562,0 1.45312,-0.39062 0.6875,-0.40625 0.98438,-1.03125 v -1.95313 h -1.26563 q -3,0 -3,1.75 0,0.76563 0.51563,1.20313 0.51562,0.42187 1.3125,0.42187 z m 8.82226,-10.57812 v 2.29687 h 1.78125 v 1.26563 h -1.78125 v 5.89062 q 0,0.57813 0.23438,0.85938 0.23437,0.28125 0.8125,0.28125 0.28125,0 0.76562,-0.0937 v 1.3125 q -0.64062,0.17187 -1.23437,0.17187 -1.09375,0 -1.65625,-0.65625 -0.54688,-0.65625 -0.54688,-1.875 v -5.89062 h -1.73437 v -1.26563 h 1.73437 v -2.29687 z m 9.55176,11.8125 q -0.14062,-0.28125 -0.23437,-1 -1.14063,1.17187 -2.70313,1.17187 -1.40625,0 -2.3125,-0.79687 -0.90625,-0.79688 -0.90625,-2.01563 0,-1.48437 1.125,-2.29687 1.14063,-0.82813 3.1875,-0.82813 h 1.57813 v -0.75 q 0,-0.84375 -0.51563,-1.34375 -0.5,-0.51562 -1.5,-0.51562 -0.85937,0 -1.45312,0.4375 -0.59375,0.4375 -0.59375,1.0625 h -1.625 q 0,-0.70313 0.5,-1.35938 0.5,-0.67187 1.35937,-1.0625 0.875,-0.39062 1.92188,-0.39062 1.64062,0 2.5625,0.82812 0.9375,0.8125 0.96875,2.26563 v 4.375 q 0,1.29687 0.34375,2.07812 v 0.14063 z m -2.70312,-1.23438 q 0.76562,0 1.45312,-0.39062 0.6875,-0.40625 0.98438,-1.03125 v -1.95313 h -1.26563 q -3,0 -3,1.75 0,0.76563 0.51563,1.20313 0.51562,0.42187 1.3125,0.42187 z"
         fill-rule="nonzero"
         id="path105" />
      <path
         fill="#000000"
         fill-opacity="0"
         d="m 519.3937,291.9134 h 356.7874 v 68.22046 H 519.3937 Z"
         fill-rule="evenodd"
         id="path107" />
      <path
         fill="#000000"
         d="m 565.4588,329.15988 h -5.35938 l -1.20312,3.34375 h -1.73438 l 4.89063,-12.79688 h 1.46875 l 4.89062,12.79688 h -1.71875 z m -4.84375,-1.39063 h 4.34375 l -2.17188,-5.98437 z m 10.07031,4.73438 v -8.25 h -1.5 V 322.988 h 1.5 v -0.96875 q 0,-1.53125 0.8125,-2.35937 0.82813,-0.84375 2.3125,-0.84375 0.5625,0 1.125,0.15625 l -0.0937,1.3125 q -0.40625,-0.0781 -0.875,-0.0781 -0.79687,0 -1.23437,0.46875 -0.42188,0.45313 -0.42188,1.3125 v 1 h 2.03125 v 1.26563 h -2.03125 v 8.25 z m 7.65528,-11.8125 v 2.29687 h 1.78125 v 1.26563 h -1.78125 v 5.89062 q 0,0.57813 0.23437,0.85938 0.23438,0.28125 0.8125,0.28125 0.28125,0 0.76563,-0.0937 v 1.3125 q -0.64063,0.17187 -1.23438,0.17187 -1.09375,0 -1.65625,-0.65625 -0.54687,-0.65625 -0.54687,-1.875 v -5.89062 h -1.73438 V 322.988 h 1.73438 v -2.29687 z m 7.61425,11.98437 q -1.92187,0 -3.14062,-1.26562 -1.21875,-1.26563 -1.21875,-3.39063 v -0.3125 q 0,-1.40625 0.54687,-2.51562 0.54688,-1.10938 1.51563,-1.73438 0.96875,-0.64062 2.09375,-0.64062 1.85937,0 2.89062,1.21875 1.03125,1.21875 1.03125,3.5 v 0.67187 h -6.45312 q 0.0469,1.40625 0.82812,2.28125 0.78125,0.85938 2,0.85938 0.85938,0 1.45313,-0.34375 0.60937,-0.35938 1.04687,-0.9375 l 1,0.78125 q -1.20312,1.82812 -3.59375,1.82812 z m -0.20312,-8.51562 q -0.98438,0 -1.65625,0.71875 -0.65625,0.70312 -0.8125,2 h 4.76562 v -0.125 q -0.0781,-1.23438 -0.67187,-1.90625 -0.59375,-0.6875 -1.625,-0.6875 z m 10.39551,0.29687 q -0.375,-0.0625 -0.79688,-0.0625 -1.60937,0 -2.17187,1.35938 v 6.75 h -1.625 V 322.988 h 1.57812 l 0.0312,1.10938 q 0.79688,-1.28125 2.26563,-1.28125 0.46875,0 0.71875,0.125 z m 9.76562,6.89063 q 0.875,0 1.51563,-0.51563 0.65625,-0.53125 0.71875,-1.32812 h 1.54687 q -0.0469,0.8125 -0.5625,1.5625 -0.51562,0.73437 -1.39062,1.17187 -0.85938,0.4375 -1.82813,0.4375 -1.9375,0 -3.09375,-1.29687 -1.14062,-1.29688 -1.14062,-3.54688 v -0.26562 q 0,-1.39063 0.5,-2.46875 0.51562,-1.07813 1.46875,-1.67188 0.95312,-0.60937 2.25,-0.60937 1.60937,0 2.65625,0.96875 1.0625,0.95312 1.14062,2.48437 h -1.54687 q -0.0625,-0.92187 -0.70313,-1.51562 -0.625,-0.59375 -1.54687,-0.59375 -1.23438,0 -1.92188,0.89062 -0.67187,0.89063 -0.67187,2.57813 v 0.29687 q 0,1.65625 0.67187,2.54688 0.67188,0.875 1.9375,0.875 z m 5.17188,-3.6875 q 0,-1.39063 0.54687,-2.5 0.5625,-1.125 1.53125,-1.73438 0.98438,-0.60937 2.23438,-0.60937 1.95312,0 3.14062,1.34375 1.20313,1.34375 1.20313,3.57812 v 0.10938 q 0,1.39062 -0.53125,2.5 -0.53125,1.09375 -1.51563,1.71875 -0.98437,0.60937 -2.26562,0.60937 -1.9375,0 -3.14063,-1.34375 -1.20312,-1.34375 -1.20312,-3.5625 z m 1.64062,0.1875 q 0,1.59375 0.73438,2.54687 0.73437,0.95313 1.96875,0.95313 1.23437,0 1.95312,-0.96875 0.73438,-0.96875 0.73438,-2.71875 0,-1.5625 -0.75,-2.53125 -0.73438,-0.96875 -1.96875,-0.96875 -1.20313,0 -1.9375,0.95312 -0.73438,0.95313 -0.73438,2.73438 z m 8.65625,-0.17188 q 0,-2.1875 1.03125,-3.51562 1.04688,-1.34375 2.73438,-1.34375 1.67187,0 2.64062,1.14062 v -4.95312 h 1.625 v 13.5 h -1.5 l -0.0781,-1.01563 q -0.96875,1.1875 -2.70313,1.1875 -1.65625,0 -2.70312,-1.34375 -1.04688,-1.35937 -1.04688,-3.54687 z m 1.64063,0.17188 q 0,1.625 0.65625,2.54687 0.67187,0.90625 1.84375,0.90625 1.54687,0 2.26562,-1.39062 v -4.375 q -0.73437,-1.34375 -2.23437,-1.34375 -1.20313,0 -1.875,0.9375 -0.65625,0.92187 -0.65625,2.71875 z m 12.85449,4.82812 q -1.92188,0 -3.14063,-1.26562 -1.21875,-1.26563 -1.21875,-3.39063 v -0.3125 q 0,-1.40625 0.54688,-2.51562 0.54687,-1.10938 1.51562,-1.73438 0.96875,-0.64062 2.09375,-0.64062 1.85938,0 2.89063,1.21875 1.03125,1.21875 1.03125,3.5 v 0.67187 h -6.45313 q 0.0469,1.40625 0.82813,2.28125 0.78125,0.85938 2,0.85938 0.85937,0 1.45312,-0.34375 0.60938,-0.35938 1.04688,-0.9375 l 1,0.78125 q -1.20313,1.82812 -3.59375,1.82812 z m -0.20313,-8.51562 q -0.98437,0 -1.65625,0.71875 -0.65625,0.70312 -0.8125,2 h 4.76563 v -0.125 q -0.0781,-1.23438 -0.67188,-1.90625 -0.59375,-0.6875 -1.625,-0.6875 z m 12.02344,8.34375 h -1.625 V 322.988 h 1.625 z m -1.76562,-12.03125 q 0,-0.39063 0.23437,-0.65625 0.25,-0.28125 0.71875,-0.28125 0.48438,0 0.73438,0.28125 0.25,0.26562 0.25,0.65625 0,0.39062 -0.25,0.65625 -0.25,0.26562 -0.73438,0.26562 -0.46875,0 -0.71875,-0.26562 -0.23437,-0.26563 -0.23437,-0.65625 z m 9.89941,9.51562 q 0,-0.67187 -0.5,-1.03125 -0.48437,-0.35937 -1.71875,-0.625 -1.23437,-0.26562 -1.96875,-0.625 -0.71875,-0.375 -1.07812,-0.89062 -0.34375,-0.51563 -0.34375,-1.21875 0,-1.15625 0.98437,-1.96875 1,-0.8125 2.53125,-0.8125 1.625,0 2.625,0.84375 1.01563,0.82812 1.01563,2.125 h -1.64063 q 0,-0.67188 -0.57812,-1.14063 -0.5625,-0.48437 -1.42188,-0.48437 -0.89062,0 -1.39062,0.39062 -0.5,0.375 -0.5,1 0,0.59375 0.46875,0.89063 0.46875,0.29687 1.6875,0.57812 1.21875,0.26563 1.96875,0.64063 0.76562,0.375 1.125,0.90625 0.35937,0.53125 0.35937,1.29687 0,1.28125 -1.01562,2.04688 -1.01563,0.76562 -2.64063,0.76562 -1.14062,0 -2.03125,-0.40625 -0.875,-0.40625 -1.375,-1.125 -0.5,-0.71875 -0.5,-1.5625 h 1.64063 q 0.0312,0.8125 0.64062,1.29688 0.625,0.46875 1.625,0.46875 0.92188,0 1.46875,-0.375 0.5625,-0.375 0.5625,-0.98438 z m 12.14356,2.6875 q -1.92188,0 -3.14063,-1.26562 -1.21875,-1.26563 -1.21875,-3.39063 v -0.3125 q 0,-1.40625 0.54688,-2.51562 0.54687,-1.10938 1.51562,-1.73438 0.96875,-0.64062 2.09375,-0.64062 1.85938,0 2.89063,1.21875 1.03125,1.21875 1.03125,3.5 v 0.67187 h -6.45313 q 0.0469,1.40625 0.82813,2.28125 0.78125,0.85938 2,0.85938 0.85937,0 1.45312,-0.34375 0.60938,-0.35938 1.04688,-0.9375 l 1,0.78125 q -1.20313,1.82812 -3.59375,1.82812 z m -0.20313,-8.51562 q -0.98437,0 -1.65625,0.71875 -0.65625,0.70312 -0.8125,2 h 4.76563 v -0.125 q -0.0781,-1.23438 -0.67188,-1.90625 -0.59375,-0.6875 -1.625,-0.6875 z m 8.98926,2.3125 2.10937,-3.48438 h 1.89063 l -3.10938,4.70313 3.21875,4.8125 h -1.89062 l -2.1875,-3.5625 -2.20313,3.5625 h -1.89062 l 3.20312,-4.8125 -3.10937,-4.70313 h 1.89062 z m 9.49512,6.20312 q -1.92188,0 -3.14063,-1.26562 -1.21875,-1.26563 -1.21875,-3.39063 v -0.3125 q 0,-1.40625 0.54688,-2.51562 0.54687,-1.10938 1.51562,-1.73438 0.96875,-0.64062 2.09375,-0.64062 1.85938,0 2.89063,1.21875 1.03125,1.21875 1.03125,3.5 v 0.67187 h -6.45313 q 0.0469,1.40625 0.82813,2.28125 0.78125,0.85938 2,0.85938 0.85937,0 1.45312,-0.34375 0.60938,-0.35938 1.04688,-0.9375 l 1,0.78125 q -1.20313,1.82812 -3.59375,1.82812 z m -0.20313,-8.51562 q -0.98437,0 -1.65625,0.71875 -0.65625,0.70312 -0.8125,2 h 4.76563 v -0.125 q -0.0781,-1.23438 -0.67188,-1.90625 -0.59375,-0.6875 -1.625,-0.6875 z m 10.39551,0.29687 q -0.375,-0.0625 -0.79688,-0.0625 -1.60937,0 -2.17187,1.35938 v 6.75 h -1.625 V 322.988 h 1.57812 l 0.0312,1.10938 q 0.79688,-1.28125 2.26563,-1.28125 0.46875,0 0.71875,0.125 z m 5.14258,6.89063 q 0.875,0 1.51562,-0.51563 0.65625,-0.53125 0.71875,-1.32812 h 1.54688 q -0.0469,0.8125 -0.5625,1.5625 -0.51563,0.73437 -1.39063,1.17187 -0.85937,0.4375 -1.82812,0.4375 -1.9375,0 -3.09375,-1.29687 -1.14063,-1.29688 -1.14063,-3.54688 v -0.26562 q 0,-1.39063 0.5,-2.46875 0.51563,-1.07813 1.46875,-1.67188 0.95313,-0.60937 2.25,-0.60937 1.60938,0 2.65625,0.96875 1.0625,0.95312 1.14063,2.48437 h -1.54688 q -0.0625,-0.92187 -0.70312,-1.51562 -0.625,-0.59375 -1.54688,-0.59375 -1.23437,0 -1.92187,0.89062 -0.67188,0.89063 -0.67188,2.57813 v 0.29687 q 0,1.65625 0.67188,2.54688 0.67187,0.875 1.9375,0.875 z m 7.375,1.15625 h -1.625 V 322.988 h 1.625 z m -1.76563,-12.03125 q 0,-0.39063 0.23438,-0.65625 0.25,-0.28125 0.71875,-0.28125 0.48437,0 0.73437,0.28125 0.25,0.26562 0.25,0.65625 0,0.39062 -0.25,0.65625 -0.25,0.26562 -0.73437,0.26562 -0.46875,0 -0.71875,-0.26562 -0.23438,-0.26563 -0.23438,-0.65625 z m 9.89942,9.51562 q 0,-0.67187 -0.5,-1.03125 -0.48438,-0.35937 -1.71875,-0.625 -1.23438,-0.26562 -1.96875,-0.625 -0.71875,-0.375 -1.07813,-0.89062 -0.34375,-0.51563 -0.34375,-1.21875 0,-1.15625 0.98438,-1.96875 1,-0.8125 2.53125,-0.8125 1.625,0 2.625,0.84375 1.01562,0.82812 1.01562,2.125 h -1.64062 q 0,-0.67188 -0.57813,-1.14063 -0.5625,-0.48437 -1.42187,-0.48437 -0.89063,0 -1.39063,0.39062 -0.5,0.375 -0.5,1 0,0.59375 0.46875,0.89063 0.46875,0.29687 1.6875,0.57812 1.21875,0.26563 1.96875,0.64063 0.76563,0.375 1.125,0.90625 0.35938,0.53125 0.35938,1.29687 0,1.28125 -1.01563,2.04688 -1.01562,0.76562 -2.64062,0.76562 -1.14063,0 -2.03125,-0.40625 -0.875,-0.40625 -1.375,-1.125 -0.5,-0.71875 -0.5,-1.5625 h 1.64062 q 0.0312,0.8125 0.64063,1.29688 0.625,0.46875 1.625,0.46875 0.92187,0 1.46875,-0.375 0.5625,-0.375 0.5625,-0.98438 z m 7.6875,2.6875 q -1.92188,0 -3.14063,-1.26562 -1.21875,-1.26563 -1.21875,-3.39063 v -0.3125 q 0,-1.40625 0.54688,-2.51562 0.54687,-1.10938 1.51562,-1.73438 0.96875,-0.64062 2.09375,-0.64062 1.85938,0 2.89063,1.21875 1.03125,1.21875 1.03125,3.5 v 0.67187 h -6.45313 q 0.0469,1.40625 0.82813,2.28125 0.78125,0.85938 2,0.85938 0.85937,0 1.45312,-0.34375 0.60938,-0.35938 1.04688,-0.9375 l 1,0.78125 q -1.20313,1.82812 -3.59375,1.82812 z m -0.20313,-8.51562 q -0.98437,0 -1.65625,0.71875 -0.65625,0.70312 -0.8125,2 h 4.76563 v -0.125 q -0.0781,-1.23438 -0.67188,-1.90625 -0.59375,-0.6875 -1.625,-0.6875 z m 5.39551,3.51562 q 0,-2.1875 1.03125,-3.51562 1.04687,-1.34375 2.73437,-1.34375 1.67188,0 2.64063,1.14062 v -4.95312 h 1.625 v 13.5 h -1.5 l -0.0781,-1.01563 q -0.96875,1.1875 -2.70312,1.1875 -1.65625,0 -2.70313,-1.34375 -1.04687,-1.35937 -1.04687,-3.54687 z m 1.64062,0.17188 q 0,1.625 0.65625,2.54687 0.67188,0.90625 1.84375,0.90625 1.54688,0 2.26563,-1.39062 v -4.375 q -0.73438,-1.34375 -2.23438,-1.34375 -1.20312,0 -1.875,0.9375 -0.65625,0.92187 -0.65625,2.71875 z m 8.8545,7.20312 -0.92188,-0.625 q 0.82813,-1.15625 0.85938,-2.375 v -1.46875 h 1.59375 v 1.26563 q 0,0.89062 -0.4375,1.78125 -0.42188,0.89062 -1.09375,1.42187 z m 7.66113,-7.375 q 0,-2.23437 1.03125,-3.54687 1.03125,-1.3125 2.71875,-1.3125 1.75,0 2.71875,1.23437 l 0.0781,-1.0625 h 1.48438 v 9.28125 q 0,1.85938 -1.09375,2.92188 -1.09375,1.0625 -2.9375,1.0625 -1.03125,0 -2.01563,-0.45313 -0.98437,-0.4375 -1.5,-1.20312 l 0.84375,-0.96875 q 1.04688,1.29687 2.5625,1.29687 1.1875,0 1.84375,-0.67187 0.67188,-0.67188 0.67188,-1.875 v -0.82813 q -0.98438,1.125 -2.67188,1.125 -1.67187,0 -2.70312,-1.34375 -1.03125,-1.34375 -1.03125,-3.65625 z m 1.64062,0.17188 q 0,1.60937 0.65625,2.53125 0.65625,0.92187 1.84375,0.92187 1.53125,0 2.26563,-1.40625 v -4.32812 q -0.75,-1.375 -2.25,-1.375 -1.1875,0 -1.85938,0.9375 -0.65625,0.92187 -0.65625,2.71875 z m 12.78614,4.82812 q -1.92188,0 -3.14063,-1.26562 -1.21875,-1.26563 -1.21875,-3.39063 v -0.3125 q 0,-1.40625 0.54688,-2.51562 0.54687,-1.10938 1.51562,-1.73438 0.96875,-0.64062 2.09375,-0.64062 1.85938,0 2.89063,1.21875 1.03125,1.21875 1.03125,3.5 v 0.67187 h -6.45313 q 0.0469,1.40625 0.82813,2.28125 0.78125,0.85938 2,0.85938 0.85937,0 1.45312,-0.34375 0.60938,-0.35938 1.04688,-0.9375 l 1,0.78125 q -1.20313,1.82812 -3.59375,1.82812 z m -0.20313,-8.51562 q -0.98437,0 -1.65625,0.71875 -0.65625,0.70312 -0.8125,2 h 4.76563 v -0.125 q -0.0781,-1.23438 -0.67188,-1.90625 -0.59375,-0.6875 -1.625,-0.6875 z m 7.33301,-1.17188 0.0625,1.20313 q 1.07812,-1.375 2.84375,-1.375 3.01562,0 3.03125,3.40625 v 6.28125 h -1.625 v -6.29688 q 0,-1.03125 -0.46875,-1.51562 -0.45313,-0.5 -1.4375,-0.5 -0.78125,0 -1.39063,0.42187 -0.59375,0.42188 -0.92187,1.10938 v 6.78125 h -1.625 V 322.988 Z m 12.33789,9.6875 q -1.92187,0 -3.14062,-1.26562 -1.21875,-1.26563 -1.21875,-3.39063 v -0.3125 q 0,-1.40625 0.54687,-2.51562 0.54688,-1.10938 1.51563,-1.73438 0.96875,-0.64062 2.09375,-0.64062 1.85937,0 2.89062,1.21875 1.03125,1.21875 1.03125,3.5 v 0.67187 h -6.45312 q 0.0469,1.40625 0.82812,2.28125 0.78125,0.85938 2,0.85938 0.85938,0 1.45313,-0.34375 0.60937,-0.35938 1.04687,-0.9375 l 1,0.78125 q -1.20312,1.82812 -3.59375,1.82812 z m -0.20312,-8.51562 q -0.98438,0 -1.65625,0.71875 -0.65625,0.70312 -0.8125,2 h 4.76562 v -0.125 q -0.0781,-1.23438 -0.67187,-1.90625 -0.59375,-0.6875 -1.625,-0.6875 z m 10.3955,0.29687 q -0.375,-0.0625 -0.79687,-0.0625 -1.60938,0 -2.17188,1.35938 v 6.75 h -1.625 V 322.988 h 1.57813 l 0.0312,1.10938 q 0.79687,-1.28125 2.26562,-1.28125 0.46875,0 0.71875,0.125 z m 7.02051,8.04688 q -0.14062,-0.28125 -0.23437,-1 -1.14063,1.17187 -2.70313,1.17187 -1.40625,0 -2.3125,-0.79687 -0.90625,-0.79688 -0.90625,-2.01563 0,-1.48437 1.125,-2.29687 1.14063,-0.82813 3.1875,-0.82813 h 1.57813 v -0.75 q 0,-0.84375 -0.51563,-1.34375 -0.5,-0.51562 -1.5,-0.51562 -0.85937,0 -1.45312,0.4375 -0.59375,0.4375 -0.59375,1.0625 h -1.625 q 0,-0.70313 0.5,-1.35938 0.5,-0.67187 1.35937,-1.0625 0.875,-0.39062 1.92188,-0.39062 1.64062,0 2.5625,0.82812 0.9375,0.8125 0.96875,2.26563 v 4.375 q 0,1.29687 0.34375,2.07812 v 0.14063 z m -2.70312,-1.23438 q 0.76562,0 1.45312,-0.39062 0.6875,-0.40625 0.98438,-1.03125 v -1.95313 h -1.26563 q -3,0 -3,1.75 0,0.76563 0.51563,1.20313 0.51562,0.42187 1.3125,0.42187 z m 8.82226,-10.57812 v 2.29687 h 1.78125 v 1.26563 h -1.78125 v 5.89062 q 0,0.57813 0.23438,0.85938 0.23437,0.28125 0.8125,0.28125 0.28125,0 0.76562,-0.0937 v 1.3125 q -0.64062,0.17187 -1.23437,0.17187 -1.09375,0 -1.65625,-0.65625 -0.54688,-0.65625 -0.54688,-1.875 v -5.89062 h -1.73437 V 322.988 h 1.73437 v -2.29687 z m 7.61426,11.98437 q -1.92187,0 -3.14062,-1.26562 -1.21875,-1.26563 -1.21875,-3.39063 v -0.3125 q 0,-1.40625 0.54687,-2.51562 0.54688,-1.10938 1.51563,-1.73438 0.96875,-0.64062 2.09375,-0.64062 1.85937,0 2.89062,1.21875 1.03125,1.21875 1.03125,3.5 v 0.67187 h -6.45312 q 0.0469,1.40625 0.82812,2.28125 0.78125,0.85938 2,0.85938 0.85938,0 1.45313,-0.34375 0.60937,-0.35938 1.04687,-0.9375 l 1,0.78125 q -1.20312,1.82812 -3.59375,1.82812 z m -0.20312,-8.51562 q -0.98438,0 -1.65625,0.71875 -0.65625,0.70312 -0.8125,2 h 4.76562 v -0.125 q -0.0781,-1.23438 -0.67187,-1.90625 -0.59375,-0.6875 -1.625,-0.6875 z m 11.333,5.82812 q 0,-0.67187 -0.5,-1.03125 -0.48437,-0.35937 -1.71875,-0.625 -1.23437,-0.26562 -1.96875,-0.625 -0.71875,-0.375 -1.07812,-0.89062 -0.34375,-0.51563 -0.34375,-1.21875 0,-1.15625 0.98437,-1.96875 1,-0.8125 2.53125,-0.8125 1.625,0 2.625,0.84375 1.01563,0.82812 1.01563,2.125 h -1.64063 q 0,-0.67188 -0.57812,-1.14063 -0.5625,-0.48437 -1.42188,-0.48437 -0.89062,0 -1.39062,0.39062 -0.5,0.375 -0.5,1 0,0.59375 0.46875,0.89063 0.46875,0.29687 1.6875,0.57812 1.21875,0.26563 1.96875,0.64063 0.76562,0.375 1.125,0.90625 0.35937,0.53125 0.35937,1.29687 0,1.28125 -1.01562,2.04688 -1.01563,0.76562 -2.64063,0.76562 -1.14062,0 -2.03125,-0.40625 -0.875,-0.40625 -1.375,-1.125 -0.5,-0.71875 -0.5,-1.5625 h 1.64063 q 0.0312,0.8125 0.64062,1.29688 0.625,0.46875 1.625,0.46875 0.92188,0 1.46875,-0.375 0.5625,-0.375 0.5625,-0.98438 z m 3.8125,1.65625 q 0,-0.42187 0.25,-0.70312 0.25,-0.28125 0.75,-0.28125 0.5,0 0.75,0.28125 0.26563,0.28125 0.26563,0.70312 0,0.40625 -0.26563,0.6875 -0.25,0.26563 -0.75,0.26563 -0.5,0 -0.75,-0.26563 -0.25,-0.28125 -0.25,-0.6875 z m 3.84375,0 q 0,-0.42187 0.25,-0.70312 0.25,-0.28125 0.75,-0.28125 0.5,0 0.75,0.28125 0.26563,0.28125 0.26563,0.70312 0,0.40625 -0.26563,0.6875 -0.25,0.26563 -0.75,0.26563 -0.5,0 -0.75,-0.26563 -0.25,-0.28125 -0.25,-0.6875 z m 3.65625,0 q 0,-0.42187 0.25,-0.70312 0.25,-0.28125 0.75,-0.28125 0.5,0 0.75,0.28125 0.26563,0.28125 0.26563,0.70312 0,0.40625 -0.26563,0.6875 -0.25,0.26563 -0.75,0.26563 -0.5,0 -0.75,-0.26563 -0.25,-0.28125 -0.25,-0.6875 z"
         fill-rule="nonzero"
         id="path109" />
    </g>
  </g>
</svg>
